<?xml version="1.0" encoding="UTF-8" standalone="no"?>
<svg width="105px" height="65px" viewBox="0 0 105 65" version="1.1" xmlns="http://www.w3.org/2000/svg" xmlns:xlink="http://www.w3.org/1999/xlink">
    <!-- Generator: Sketch Beta 39.1 (31721) - http://www.bohemiancoding.com/sketch -->
    <title>Page 1</title>
    <desc>Created with Sketch Beta.</desc>
    <defs></defs>
    <g id="Page-1" stroke="none" stroke-width="1" fill="none" fill-rule="evenodd">
        <g id="Support-Copy-2" transform="translate(-668.000000, -368.000000)">
            <g id="Page-1" transform="translate(669.000000, 369.000000)">
                <path d="M10.3760041,52.3416917 L92.6239959,52.3416917 L92.6239959,2.89093923 C92.6239959,1.54726325 91.6308169,0.454082951 90.4099161,0.454082951 L12.5900839,0.454082951 C11.3691831,0.454082951 10.3760041,1.54726325 10.3760041,2.89093923 L10.3760041,52.3416917 L10.3760041,52.3416917 Z M92.8495894,52.7957746 L10.1506471,52.7957746 C10.0260267,52.7957746 9.92505353,52.6941001 9.92505353,52.5686141 L9.92505353,2.89093923 C9.92505353,1.29676757 11.1206519,0 12.5900839,0 L90.4099161,0 C91.8793481,0 93.0749465,1.29676757 93.0749465,2.89093923 L93.0749465,52.5686141 C93.0749465,52.6941001 92.9739733,52.7957746 92.8495894,52.7957746 L92.8495894,52.7957746 Z" id="Fill-1" stroke="#B327BF" fill="#B327BF"></path>
                <path d="M15.8901398,46.5757125 L86.8893035,46.5757125 L86.8893035,5.5548066 L15.8901398,5.5548066 L15.8901398,46.5757125 Z M87.114769,47.028169 L15.6644377,47.028169 C15.539994,47.028169 15.4389722,46.9270428 15.4389722,46.8019407 L15.4389722,5.32834094 C15.4389722,5.20347623 15.539994,5.10211268 15.6644377,5.10211268 L87.114769,5.10211268 C87.2394493,5.10211268 87.3404711,5.20347623 87.3404711,5.32834094 L87.3404711,46.8019407 C87.3404711,46.9270428 87.2394493,47.028169 87.114769,47.028169 L87.114769,47.028169 Z" id="Fill-3" stroke="#B327BF" fill="#B327BF"></path>
                <path d="M0.981131357,58.7827587 L102.018869,58.7827587 L92.7812962,52.7982272 L10.2187038,52.7982272 L0.981131357,58.7827587 Z M102.774616,59.2288732 L0.225383714,59.2288732 C0.125831225,59.2288732 0.0378656042,59.1640732 0.0094895976,59.0695633 C-0.0191228757,58.9750535 0.018475333,58.8732917 0.101948086,58.8192526 L10.0278752,52.3886066 C10.0645275,52.3647452 10.1075645,52.3521127 10.1513108,52.3521127 L92.8486892,52.3521127 C92.8924355,52.3521127 92.9354725,52.3647452 92.9721248,52.3886066 L102.898052,58.8192526 C102.981525,58.8732917 103.019123,58.9750535 102.99051,59.0695633 C102.962134,59.1640732 102.874169,59.2288732 102.774616,59.2288732 L102.774616,59.2288732 Z" id="Fill-5" stroke="#B327BF" fill="#B327BF"></path>
                <polygon id="Fill-6" stroke="#B327BF" fill="#B327BF" points="9.2633833 56.3450704 93.7366167 56.3450704 91.6953725 54.7922535 11.3046275 54.7922535"></polygon>
                <path d="M0.450941274,59.2299657 L0.450941274,61.6172265 C0.450941274,62.134513 0.877762983,62.5554788 1.40224528,62.5554788 L101.597755,62.5554788 C102.122237,62.5554788 102.549059,62.134513 102.549059,61.6172265 L102.549059,59.2299657 L0.450941274,59.2299657 Z M101.597755,63 L1.40224528,63 C0.629000413,63 0,62.3796294 0,61.6172265 L0,59.0077051 C0,58.8847971 0.100971119,58.7852113 0.22558887,58.7852113 L102.774411,58.7852113 C102.899029,58.7852113 103,58.8847971 103,59.0077051 L103,61.6172265 C103,62.3796294 102.371,63 101.597755,63 L101.597755,63 Z" id="Fill-7" stroke="#B327BF" fill="#B327BF"></path>
                <polygon id="Fill-8" stroke="#B327BF" fill="#B327BF" points="28.8929336 46.806338 29.1683347 46.806338 29.1683347 5.32394366 28.8929336 5.32394366"></polygon>
                <polygon id="Fill-9" stroke="#B327BF" fill="#B327BF" points="30.6573876 46.806338 30.9327886 46.806338 30.9327886 5.32394366 30.6573876 5.32394366"></polygon>
                <polygon id="Fill-10" stroke="#B327BF" fill="#B327BF" points="29.7751606 6.93124537 30.2162741 6.93124537 30.2162741 6.65492958 29.7751606 6.65492958"></polygon>
                <polygon id="Fill-11" stroke="#B327BF" fill="#B327BF" points="29.7751606 8.48406227 30.2162741 8.48406227 30.2162741 8.20774648 29.7751606 8.20774648"></polygon>
                <polygon id="Fill-12" stroke="#B327BF" fill="#B327BF" points="29.7751606 10.0368792 30.2162741 10.0368792 30.2162741 9.76056338 29.7751606 9.76056338"></polygon>
                <polygon id="Fill-13" stroke="#B327BF" fill="#B327BF" points="29.7751606 11.5896961 30.2162741 11.5896961 30.2162741 11.3133803 29.7751606 11.3133803"></polygon>
                <polygon id="Fill-14" stroke="#B327BF" fill="#B327BF" points="29.7751606 13.142513 30.2162741 13.142513 30.2162741 12.8661972 29.7751606 12.8661972"></polygon>
                <polygon id="Fill-15" stroke="#B327BF" fill="#B327BF" points="29.7751606 14.6953299 30.2162741 14.6953299 30.2162741 14.4190141 29.7751606 14.4190141"></polygon>
                <polygon id="Fill-16" stroke="#B327BF" fill="#B327BF" points="29.7751606 16.2481468 30.2162741 16.2481468 30.2162741 15.971831 29.7751606 15.971831"></polygon>
                <polygon id="Fill-17" stroke="#B327BF" fill="#B327BF" points="29.7751606 17.8009637 30.2162741 17.8009637 30.2162741 17.5246479 29.7751606 17.5246479"></polygon>
                <polygon id="Fill-18" stroke="#B327BF" fill="#B327BF" points="29.7751606 19.3537806 30.2162741 19.3537806 30.2162741 19.0774648 29.7751606 19.0774648"></polygon>
                <polygon id="Fill-19" stroke="#B327BF" fill="#B327BF" points="29.7751606 20.9065975 30.2162741 20.9065975 30.2162741 20.6302817 29.7751606 20.6302817"></polygon>
                <polygon id="Fill-20" stroke="#B327BF" fill="#B327BF" points="29.7751606 22.4594144 30.2162741 22.4594144 30.2162741 22.1830986 29.7751606 22.1830986"></polygon>
                <polygon id="Fill-21" stroke="#B327BF" fill="#B327BF" points="29.7751606 24.0122313 30.2162741 24.0122313 30.2162741 23.7359155 29.7751606 23.7359155"></polygon>
                <polygon id="Fill-22" stroke="#B327BF" fill="#B327BF" points="29.7751606 25.5650482 30.2162741 25.5650482 30.2162741 25.2887324 29.7751606 25.2887324"></polygon>
                <polygon id="Fill-23" stroke="#B327BF" fill="#B327BF" points="29.7751606 27.1178651 30.2162741 27.1178651 30.2162741 26.8415493 29.7751606 26.8415493"></polygon>
                <polygon id="Fill-24" stroke="#B327BF" fill="#B327BF" points="29.7751606 28.448851 30.2162741 28.448851 30.2162741 28.1725352 29.7751606 28.1725352"></polygon>
                <polygon id="Fill-25" stroke="#B327BF" fill="#B327BF" points="29.7751606 30.0016679 30.2162741 30.0016679 30.2162741 29.7253521 29.7751606 29.7253521"></polygon>
                <polygon id="Fill-26" stroke="#B327BF" fill="#B327BF" points="29.7751606 31.5544848 30.2162741 31.5544848 30.2162741 31.278169 29.7751606 31.278169"></polygon>
                <polygon id="Fill-27" stroke="#B327BF" fill="#B327BF" points="29.7751606 33.1073017 30.2162741 33.1073017 30.2162741 32.8309859 29.7751606 32.8309859"></polygon>
                <polygon id="Fill-28" stroke="#B327BF" fill="#B327BF" points="29.7751606 34.6601186 30.2162741 34.6601186 30.2162741 34.3838028 29.7751606 34.3838028"></polygon>
                <polygon id="Fill-29" stroke="#B327BF" fill="#B327BF" points="29.7751606 36.2129355 30.2162741 36.2129355 30.2162741 35.9366197 29.7751606 35.9366197"></polygon>
                <polygon id="Fill-30" stroke="#B327BF" fill="#B327BF" points="29.7751606 37.7657524 30.2162741 37.7657524 30.2162741 37.4894366 29.7751606 37.4894366"></polygon>
                <polygon id="Fill-31" stroke="#B327BF" fill="#B327BF" points="29.7751606 39.3185693 30.2162741 39.3185693 30.2162741 39.0422535 29.7751606 39.0422535"></polygon>
                <polygon id="Fill-32" stroke="#B327BF" fill="#B327BF" points="29.7751606 40.8713862 30.2162741 40.8713862 30.2162741 40.5950704 29.7751606 40.5950704"></polygon>
                <polygon id="Fill-33" stroke="#B327BF" fill="#B327BF" points="29.7751606 42.4242031 30.2162741 42.4242031 30.2162741 42.1478873 29.7751606 42.1478873"></polygon>
                <polygon id="Fill-34" stroke="#B327BF" fill="#B327BF" points="29.7751606 43.97702 30.2162741 43.97702 30.2162741 43.7007042 29.7751606 43.7007042"></polygon>
                <polygon id="Fill-35" stroke="#B327BF" fill="#B327BF" points="29.7751606 45.5298369 30.2162741 45.5298369 30.2162741 45.2535211 29.7751606 45.2535211"></polygon>
                <polygon id="Fill-36" stroke="#B327BF" fill="#B327BF" points="34.1862955 6.93124537 36.6124197 6.93124537 36.6124197 6.65492958 34.1862955 6.65492958"></polygon>
                <polygon id="Fill-37" stroke="#B327BF" fill="#B327BF" points="34.1862955 8.48406227 37.7152034 8.48406227 37.7152034 8.20774648 34.1862955 8.20774648"></polygon>
                <polygon id="Fill-38" stroke="#B327BF" fill="#B327BF" points="34.1862955 10.0368792 36.1713062 10.0368792 36.1713062 9.76056338 34.1862955 9.76056338"></polygon>
                <path d="M33.5458927,7.54225352 L33.124897,7.09392198 C33.0697167,7.0351588 33.0697167,6.94019331 33.124897,6.88169247 L33.5458927,6.43309859 L33.745182,6.64532809 L33.4237078,6.98767606 L33.745182,7.33002402 L33.5458927,7.54225352 Z" id="Fill-39" stroke="#B327BF" fill="#B327BF"></path>
                <path d="M33.5458927,9.09507042 L33.124897,8.64673888 C33.0697167,8.58823804 33.0697167,8.49301021 33.124897,8.43450937 L33.5458927,7.98591549 L33.745182,8.198145 L33.4237078,8.54049296 L33.745182,8.88284092 L33.5458927,9.09507042 Z" id="Fill-40" stroke="#B327BF" fill="#B327BF"></path>
                <path d="M33.5458927,10.4260563 L33.124897,9.97761873 C33.0697167,9.91910405 33.0697167,9.8238537 33.124897,9.76533902 L33.5458927,9.31690141 L33.745182,9.52891872 L33.4237078,9.87134767 L33.745182,10.2137766 L33.5458927,10.4260563 Z" id="Fill-41" stroke="#B327BF" fill="#B327BF"></path>
                <path d="M37.4733793,7.54225352 L37.2740899,7.33002402 L37.5955641,6.98767606 L37.2740899,6.64532809 L37.4733793,6.43309859 L37.894375,6.88169247 C37.9495552,6.94019331 37.9495552,7.0351588 37.894375,7.09392198 L37.4733793,7.54225352 Z" id="Fill-42" stroke="#B327BF" fill="#B327BF"></path>
                <path d="M38.3556063,9.09507042 L38.1563169,8.88284092 L38.4777911,8.54049296 L38.1563169,8.198145 L38.3556063,7.98591549 L38.7768483,8.43450937 C38.8032067,8.46257928 38.8179872,8.50088028 38.8179872,8.54049296 C38.8179872,8.58036797 38.8032067,8.61866897 38.7768483,8.64673888 L38.3556063,9.09507042 Z" id="Fill-43" stroke="#B327BF" fill="#B327BF"></path>
                <polygon id="Fill-44" stroke="#B327BF" fill="#B327BF" points="37.4946467 11.5896961 41.0235546 11.5896961 41.0235546 11.3133803 37.4946467 11.3133803"></polygon>
                <polygon id="Fill-45" stroke="#B327BF" fill="#B327BF" points="43.8907923 11.5896961 46.0963597 11.5896961 46.0963597 11.3133803 43.8907923 11.3133803"></polygon>
                <polygon id="Fill-46" stroke="#B327BF" fill="#B327BF" points="35.0685225 11.5896961 36.8329764 11.5896961 36.8329764 11.3133803 35.0685225 11.3133803"></polygon>
                <polygon id="Fill-47" stroke="#B327BF" fill="#B327BF" points="41.4646681 11.8115271 42.1263383 11.8115271 42.1263383 11.5352113 41.4646681 11.5352113"></polygon>
                <polygon id="Fill-48" stroke="#B327BF" fill="#B327BF" points="41.4646681 11.3678651 42.1263383 11.3678651 42.1263383 11.0915493 41.4646681 11.0915493"></polygon>
                <polygon id="Fill-49" stroke="#B327BF" fill="#B327BF" points="42.7880086 11.5352113 43.0634096 11.5352113 43.0634096 11.0915493 42.7880086 11.0915493"></polygon>
                <polygon id="Fill-50" stroke="#B327BF" fill="#B327BF" points="43.0085653 11.5352113 43.2839664 11.5352113 43.2839664 11.0915493 43.0085653 11.0915493"></polygon>
                <polygon id="Fill-51" stroke="#B327BF" fill="#B327BF" points="46.5374732 11.5352113 46.8128743 11.5352113 46.8128743 11.0915493 46.5374732 11.0915493"></polygon>
                <polygon id="Fill-52" stroke="#B327BF" fill="#B327BF" points="46.75803 11.5352113 47.033431 11.5352113 47.033431 11.0915493 46.75803 11.0915493"></polygon>
                <path d="M34.4281196,11.9788732 L34.0071239,11.5304356 C33.9519437,11.471921 33.9519437,11.3766706 34.0071239,11.3181559 L34.4281196,10.8697183 L34.627409,11.0817356 L34.3059348,11.4241646 L34.627409,11.7665935 L34.4281196,11.9788732 Z" id="Fill-53" stroke="#B327BF" fill="#B327BF"></path>
                <path d="M47.8395463,11.9788732 L47.640257,11.7665935 L47.9617311,11.4241646 L47.640257,11.0817356 L47.8395463,10.8697183 L48.260542,11.3181559 C48.3157223,11.3766706 48.3157223,11.471921 48.260542,11.5304356 L47.8395463,11.9788732 Z" id="Fill-54" stroke="#B327BF" fill="#B327BF"></path>
                <polygon id="Fill-55" stroke="#B327BF" fill="#B327BF" points="38.5974304 13.142513 42.1263383 13.142513 42.1263383 12.8661972 38.5974304 12.8661972"></polygon>
                <polygon id="Fill-56" stroke="#B327BF" fill="#B327BF" points="44.7730193 13.142513 48.7430407 13.142513 48.7430407 12.8661972 44.7730193 12.8661972"></polygon>
                <polygon id="Fill-57" stroke="#B327BF" fill="#B327BF" points="35.9507495 13.142513 37.7152034 13.142513 37.7152034 12.8661972 35.9507495 12.8661972"></polygon>
                <polygon id="Fill-58" stroke="#B327BF" fill="#B327BF" points="42.3468951 13.364344 43.0085653 13.364344 43.0085653 13.0880282 42.3468951 13.0880282"></polygon>
                <polygon id="Fill-59" stroke="#B327BF" fill="#B327BF" points="42.3468951 12.920682 43.0085653 12.920682 43.0085653 12.6443662 42.3468951 12.6443662"></polygon>
                <polygon id="Fill-60" stroke="#B327BF" fill="#B327BF" points="43.6702355 13.0880282 43.9456366 13.0880282 43.9456366 12.6443662 43.6702355 12.6443662"></polygon>
                <polygon id="Fill-61" stroke="#B327BF" fill="#B327BF" points="44.111349 13.0880282 44.3867501 13.0880282 44.3867501 12.6443662 44.111349 12.6443662"></polygon>
                <polygon id="Fill-62" stroke="#B327BF" fill="#B327BF" points="49.1841542 13.0880282 49.4595552 13.0880282 49.4595552 12.6443662 49.1841542 12.6443662"></polygon>
                <polygon id="Fill-63" stroke="#B327BF" fill="#B327BF" points="49.6252677 13.0880282 49.9006687 13.0880282 49.9006687 12.6443662 49.6252677 12.6443662"></polygon>
                <path d="M35.3103466,13.5316901 L34.8891046,13.0833586 C34.8627462,13.0550264 34.8479657,13.0169877 34.8479657,12.9771127 C34.8479657,12.9372377 34.8627462,12.899199 34.8891046,12.8711291 L35.3103466,12.4225352 L35.509636,12.6347647 L35.1881618,12.9771127 L35.509636,13.3194606 L35.3103466,13.5316901 Z" id="Fill-64" stroke="#B327BF" fill="#B327BF"></path>
                <path d="M50.706784,13.5316901 L50.5074946,13.3194606 L50.8289688,12.9771127 L50.5074946,12.6347647 L50.706784,12.4225352 L51.128026,12.8711291 C51.1543845,12.899199 51.1691649,12.9372377 51.1691649,12.9771127 C51.1691649,13.0169877 51.1543845,13.0550264 51.128026,13.0833586 L50.706784,13.5316901 Z" id="Fill-65" stroke="#B327BF" fill="#B327BF"></path>
                <polygon id="Fill-66" stroke="#B327BF" fill="#B327BF" points="39.4796574 14.6953299 43.0085653 14.6953299 43.0085653 14.4190141 39.4796574 14.4190141"></polygon>
                <polygon id="Fill-67" stroke="#B327BF" fill="#B327BF" points="45.6552463 14.6953299 47.8608137 14.6953299 47.8608137 14.4190141 45.6552463 14.4190141"></polygon>
                <polygon id="Fill-68" stroke="#B327BF" fill="#B327BF" points="51.6102784 14.6953299 52.7130621 14.6953299 52.7130621 14.4190141 51.6102784 14.4190141"></polygon>
                <polygon id="Fill-69" stroke="#B327BF" fill="#B327BF" points="58.888651 14.6953299 61.7558887 14.6953299 61.7558887 14.4190141 58.888651 14.4190141"></polygon>
                <polygon id="Fill-70" stroke="#B327BF" fill="#B327BF" points="53.1541756 14.6953299 55.8008565 14.6953299 55.8008565 14.4190141 53.1541756 14.4190141"></polygon>
                <polygon id="Fill-71" stroke="#B327BF" fill="#B327BF" points="36.8329764 14.6953299 38.5974304 14.6953299 38.5974304 14.4190141 36.8329764 14.4190141"></polygon>
                <polygon id="Fill-72" stroke="#B327BF" fill="#B327BF" points="43.4496788 14.9171609 44.111349 14.9171609 44.111349 14.6408451 43.4496788 14.6408451"></polygon>
                <polygon id="Fill-73" stroke="#B327BF" fill="#B327BF" points="43.4496788 14.4734989 44.111349 14.4734989 44.111349 14.1971831 43.4496788 14.1971831"></polygon>
                <polygon id="Fill-74" stroke="#B327BF" fill="#B327BF" points="56.4625268 14.9171609 57.124197 14.9171609 57.124197 14.6408451 56.4625268 14.6408451"></polygon>
                <polygon id="Fill-75" stroke="#B327BF" fill="#B327BF" points="56.4625268 14.4734989 57.124197 14.4734989 57.124197 14.1971831 56.4625268 14.1971831"></polygon>
                <polygon id="Fill-76" stroke="#B327BF" fill="#B327BF" points="44.5524625 14.6408451 44.8278636 14.6408451 44.8278636 14.1971831 44.5524625 14.1971831"></polygon>
                <polygon id="Fill-77" stroke="#B327BF" fill="#B327BF" points="44.993576 14.6408451 45.2689771 14.6408451 45.2689771 14.1971831 44.993576 14.1971831"></polygon>
                <polygon id="Fill-78" stroke="#B327BF" fill="#B327BF" points="48.3019272 14.6408451 48.5773283 14.6408451 48.5773283 14.1971831 48.3019272 14.1971831"></polygon>
                <polygon id="Fill-79" stroke="#B327BF" fill="#B327BF" points="48.7430407 14.6408451 49.0184418 14.6408451 49.0184418 14.1971831 48.7430407 14.1971831"></polygon>
                <polygon id="Fill-80" stroke="#B327BF" fill="#B327BF" points="57.7858672 14.6408451 58.0612683 14.6408451 58.0612683 14.1971831 57.7858672 14.1971831"></polygon>
                <polygon id="Fill-81" stroke="#B327BF" fill="#B327BF" points="58.2269807 14.6408451 58.5023818 14.6408451 58.5023818 14.1971831 58.2269807 14.1971831"></polygon>
                <polygon id="Fill-82" stroke="#B327BF" fill="#B327BF" points="62.4175589 14.6408451 62.69296 14.6408451 62.69296 14.1971831 62.4175589 14.1971831"></polygon>
                <polygon id="Fill-83" stroke="#B327BF" fill="#B327BF" points="62.6381156 14.6408451 62.9135167 14.6408451 62.9135167 14.1971831 62.6381156 14.1971831"></polygon>
                <path d="M36.1925736,15.084507 L35.7713316,14.6360694 C35.7449731,14.6079929 35.7301927,14.5696828 35.7301927,14.5297984 C35.7301927,14.4901763 35.7449731,14.4518663 35.7713316,14.4237897 L36.1925736,13.9753521 L36.391863,14.1873694 L36.0703888,14.5297984 L36.391863,14.8722273 L36.1925736,15.084507 Z" id="Fill-84" stroke="#B327BF" fill="#B327BF"></path>
                <path d="M50.9698755,15.084507 L50.5486335,14.6360694 C50.5222751,14.6079929 50.5074946,14.5696828 50.5074946,14.5297984 C50.5074946,14.4901763 50.5222751,14.4518663 50.5486335,14.4237897 L50.9698755,13.9753521 L51.1691649,14.1873694 L50.8476907,14.5297984 L51.1691649,14.8722273 L50.9698755,15.084507 Z" id="Fill-85" stroke="#B327BF" fill="#B327BF"></path>
                <path d="M49.824557,15.084507 L49.6252677,14.8722273 L49.9467418,14.5297984 L49.6252677,14.1873694 L49.824557,13.9753521 L50.2455527,14.4237897 C50.300733,14.4823044 50.300733,14.5775548 50.2455527,14.6360694 L49.824557,15.084507 Z" id="Fill-86" stroke="#B327BF" fill="#B327BF"></path>
                <polygon id="Fill-87" stroke="#B327BF" fill="#B327BF" points="39.4796574 16.2481468 43.0085653 16.2481468 43.0085653 15.971831 39.4796574 15.971831"></polygon>
                <polygon id="Fill-88" stroke="#B327BF" fill="#B327BF" points="45.6552463 16.2481468 48.7430407 16.2481468 48.7430407 15.971831 45.6552463 15.971831"></polygon>
                <polygon id="Fill-89" stroke="#B327BF" fill="#B327BF" points="36.8329764 16.2481468 38.5974304 16.2481468 38.5974304 15.971831 36.8329764 15.971831"></polygon>
                <polygon id="Fill-90" stroke="#B327BF" fill="#B327BF" points="43.4496788 16.4699778 44.111349 16.4699778 44.111349 16.193662 43.4496788 16.193662"></polygon>
                <polygon id="Fill-91" stroke="#B327BF" fill="#B327BF" points="43.4496788 16.0263158 44.111349 16.0263158 44.111349 15.75 43.4496788 15.75"></polygon>
                <polygon id="Fill-92" stroke="#B327BF" fill="#B327BF" points="45.2141328 19.5756116 45.875803 19.5756116 45.875803 19.2992958 45.2141328 19.2992958"></polygon>
                <polygon id="Fill-93" stroke="#B327BF" fill="#B327BF" points="45.2141328 19.1319496 45.875803 19.1319496 45.875803 18.8556338 45.2141328 18.8556338"></polygon>
                <polygon id="Fill-94" stroke="#B327BF" fill="#B327BF" points="44.5524625 16.193662 44.8278636 16.193662 44.8278636 15.75 44.5524625 15.75"></polygon>
                <polygon id="Fill-95" stroke="#B327BF" fill="#B327BF" points="44.993576 16.193662 45.2689771 16.193662 45.2689771 15.75 44.993576 15.75"></polygon>
                <polygon id="Fill-96" stroke="#B327BF" fill="#B327BF" points="49.1841542 16.193662 49.4595552 16.193662 49.4595552 15.75 49.1841542 15.75"></polygon>
                <polygon id="Fill-97" stroke="#B327BF" fill="#B327BF" points="49.6252677 16.193662 49.9006687 16.193662 49.9006687 15.75 49.6252677 15.75"></polygon>
                <path d="M36.1925736,16.6373239 L35.7713316,16.1889924 C35.7449731,16.1609225 35.7301927,16.1226215 35.7301927,16.0827465 C35.7301927,16.0431338 35.7449731,16.0048328 35.7713316,15.9767629 L36.1925736,15.528169 L36.391863,15.7403985 L36.0703888,16.0827465 L36.391863,16.4250944 L36.1925736,16.6373239 Z" id="Fill-98" stroke="#B327BF" fill="#B327BF"></path>
                <polygon id="Fill-99" stroke="#B327BF" fill="#B327BF" points="36.8329764 17.8009637 37.7152034 17.8009637 37.7152034 17.5246479 36.8329764 17.5246479"></polygon>
                <path d="M36.1925736,18.1901408 L35.7713316,17.7417032 C35.7449731,17.7136267 35.7301927,17.6753166 35.7301927,17.6354322 C35.7301927,17.5958101 35.7449731,17.5575001 35.7713316,17.5294235 L36.1925736,17.0809859 L36.391863,17.2930032 L36.0703888,17.6354322 L36.391863,17.9778611 L36.1925736,18.1901408 Z" id="Fill-100" stroke="#B327BF" fill="#B327BF"></path>
                <path d="M38.1350495,18.1901408 L37.9357602,17.9778611 L38.2572344,17.6354322 L37.9357602,17.2930032 L38.1350495,17.0809859 L38.5562916,17.5294235 C38.58265,17.5575001 38.5974304,17.5958101 38.5974304,17.6354322 C38.5974304,17.6753166 38.58265,17.7136267 38.5562916,17.7417032 L38.1350495,18.1901408 Z" id="Fill-101" stroke="#B327BF" fill="#B327BF"></path>
                <polygon id="Fill-102" stroke="#B327BF" fill="#B327BF" points="37.2740899 27.1178651 38.1563169 27.1178651 38.1563169 26.8415493 37.2740899 26.8415493"></polygon>
                <path d="M36.1925736,27.5070423 L35.7713316,27.0586046 C35.7449731,27.0305281 35.7301927,26.992218 35.7301927,26.9523336 C35.7301927,26.9127115 35.7449731,26.8744015 35.7713316,26.8463249 L36.1925736,26.3978873 L36.391863,26.6099046 L36.0703888,26.9523336 L36.391863,27.2947625 L36.1925736,27.5070423 Z" id="Fill-103" stroke="#B327BF" fill="#B327BF"></path>
                <path d="M38.576163,27.5070423 L38.3768737,27.2947625 L38.6983478,26.9523336 L38.3768737,26.6099046 L38.576163,26.3978873 L38.9974051,26.8463249 C39.0237635,26.8744015 39.0385439,26.9127115 39.0385439,26.9523336 C39.0385439,26.992218 39.0237635,27.0305281 38.9974051,27.0586046 L38.576163,27.5070423 Z" id="Fill-104" stroke="#B327BF" fill="#B327BF"></path>
                <path d="M50.706784,16.6373239 L50.5074946,16.4250944 L50.8289688,16.0827465 L50.5074946,15.7403985 L50.706784,15.528169 L51.128026,15.9767629 C51.1543845,16.0048328 51.1691649,16.0431338 51.1691649,16.0827465 C51.1691649,16.1226215 51.1543845,16.1609225 51.128026,16.1889924 L50.706784,16.6373239 Z" id="Fill-105" stroke="#B327BF" fill="#B327BF"></path>
                <polygon id="Fill-106" stroke="#B327BF" fill="#B327BF" points="47.4197002 19.3537806 50.5074946 19.3537806 50.5074946 19.0774648 47.4197002 19.0774648"></polygon>
                <polygon id="Fill-107" stroke="#B327BF" fill="#B327BF" points="51.1691649 19.3537806 53.3747323 19.3537806 53.3747323 19.0774648 51.1691649 19.0774648"></polygon>
                <polygon id="Fill-108" stroke="#B327BF" fill="#B327BF" points="57.124197 19.3537806 59.3297645 19.3537806 59.3297645 19.0774648 57.124197 19.0774648"></polygon>
                <polygon id="Fill-109" stroke="#B327BF" fill="#B327BF" points="60.8736617 19.3537806 64.8436831 19.3537806 64.8436831 19.0774648 60.8736617 19.0774648"></polygon>
                <polygon id="Fill-110" stroke="#B327BF" fill="#B327BF" points="46.3169165 19.2992958 46.5923176 19.2992958 46.5923176 18.8556338 46.3169165 18.8556338"></polygon>
                <polygon id="Fill-111" stroke="#B327BF" fill="#B327BF" points="46.75803 19.2992958 47.033431 19.2992958 47.033431 18.8556338 46.75803 18.8556338"></polygon>
                <polygon id="Fill-112" stroke="#B327BF" fill="#B327BF" points="53.5952891 19.2992958 53.8706901 19.2992958 53.8706901 18.8556338 53.5952891 18.8556338"></polygon>
                <polygon id="Fill-113" stroke="#B327BF" fill="#B327BF" points="54.0364026 19.2992958 54.3118036 19.2992958 54.3118036 18.8556338 54.0364026 18.8556338"></polygon>
                <path d="M55.1179189,19.7429577 L54.9186296,19.530678 L55.2401037,19.1882491 L54.9186296,18.8458201 L55.1179189,18.6338028 L55.5391609,19.0822404 C55.5655194,19.110317 55.5802998,19.148627 55.5802998,19.1882491 C55.5802998,19.2281335 55.5655194,19.2664436 55.5391609,19.2945201 L55.1179189,19.7429577 Z" id="Fill-114" stroke="#B327BF" fill="#B327BF"></path>
                <path d="M59.9701673,19.7429577 L59.7708779,19.530678 L60.0923521,19.1882491 L59.7708779,18.8458201 L59.9701673,18.6338028 L60.3914093,19.0822404 C60.4177678,19.110317 60.4325482,19.148627 60.4325482,19.1882491 C60.4325482,19.2281335 60.4177678,19.2664436 60.3914093,19.2945201 L59.9701673,19.7429577 Z" id="Fill-115" stroke="#B327BF" fill="#B327BF"></path>
                <polygon id="Fill-116" stroke="#B327BF" fill="#B327BF" points="37.7152034 19.3537806 39.4796574 19.3537806 39.4796574 19.0774648 37.7152034 19.0774648"></polygon>
                <polygon id="Fill-117" stroke="#B327BF" fill="#B327BF" points="41.9057816 19.3537806 42.7880086 19.3537806 42.7880086 19.0774648 41.9057816 19.0774648"></polygon>
                <polygon id="Fill-118" stroke="#B327BF" fill="#B327BF" points="43.4496788 19.3537806 44.7730193 19.3537806 44.7730193 19.0774648 43.4496788 19.0774648"></polygon>
                <path d="M37.0748006,19.7429577 L36.6535585,19.2945201 C36.6272001,19.2664436 36.6124197,19.2281335 36.6124197,19.1882491 C36.6124197,19.148627 36.6272001,19.110317 36.6535585,19.0822404 L37.0748006,18.6338028 L37.2740899,18.8458201 L36.9526158,19.1882491 L37.2740899,19.530678 L37.0748006,19.7429577 Z" id="Fill-119" stroke="#B327BF" fill="#B327BF"></path>
                <path d="M41.2653787,19.7429577 L40.8441367,19.2945201 C40.8177783,19.2664436 40.8029979,19.2281335 40.8029979,19.1882491 C40.8029979,19.148627 40.8177783,19.110317 40.8441367,19.0822404 L41.2653787,18.6338028 L41.4646681,18.8458201 L41.1431939,19.1882491 L41.4646681,19.530678 L41.2653787,19.7429577 Z" id="Fill-120" stroke="#B327BF" fill="#B327BF"></path>
                <path d="M56.4837942,19.7429577 L56.0627985,19.2945201 C56.0076182,19.2360055 56.0076182,19.1407551 56.0627985,19.0822404 L56.4837942,18.6338028 L56.6830835,18.8458201 L56.3616093,19.1882491 L56.6830835,19.530678 L56.4837942,19.7429577 Z" id="Fill-121" stroke="#B327BF" fill="#B327BF"></path>
                <polygon id="Fill-122" stroke="#B327BF" fill="#B327BF" points="67.490364 19.3537806 69.6959315 19.3537806 69.6959315 19.0774648 67.490364 19.0774648"></polygon>
                <path d="M70.1157776,19.7429577 L69.9164882,19.530678 L70.2379624,19.1882491 L69.9164882,18.8458201 L70.1157776,18.6338028 L70.5367733,19.0822404 C70.5919535,19.1407551 70.5919535,19.2360055 70.5367733,19.2945201 L70.1157776,19.7429577 Z" id="Fill-123" stroke="#B327BF" fill="#B327BF"></path>
                <path d="M65.9677342,19.7429577 L65.5467385,19.2945201 C65.4915583,19.2360055 65.4915583,19.1407551 65.5467385,19.0822404 L65.9677342,18.6338028 L66.1670236,18.8458201 L65.8455494,19.1882491 L66.1670236,19.530678 L65.9677342,19.7429577 Z" id="Fill-124" stroke="#B327BF" fill="#B327BF"></path>
                <path d="M39.8995035,19.7429577 L39.7002141,19.530678 L40.0216883,19.1882491 L39.7002141,18.8458201 L39.8995035,18.6338028 L40.3207455,19.0822404 C40.3471039,19.110317 40.3618844,19.148627 40.3618844,19.1882491 C40.3618844,19.2281335 40.3471039,19.2664436 40.3207455,19.2945201 L39.8995035,19.7429577 Z" id="Fill-125" stroke="#B327BF" fill="#B327BF"></path>
                <path d="M63.719632,15.084507 L63.5203426,14.8722273 L63.8418168,14.5297984 L63.5203426,14.1873694 L63.719632,13.9753521 L64.1406277,14.4237897 C64.1958079,14.4823044 64.1958079,14.5775548 64.1406277,14.6360694 L63.719632,15.084507 Z" id="Fill-126" stroke="#B327BF" fill="#B327BF"></path>
                <polygon id="Fill-127" stroke="#B327BF" fill="#B327BF" points="37.4946467 33.3291327 40.1413276 33.3291327 40.1413276 33.0528169 37.4946467 33.0528169"></polygon>
                <polygon id="Fill-128" stroke="#B327BF" fill="#B327BF" points="42.7880086 33.3291327 45.875803 33.3291327 45.875803 33.0528169 42.7880086 33.0528169"></polygon>
                <polygon id="Fill-129" stroke="#B327BF" fill="#B327BF" points="35.0685225 33.3291327 36.8329764 33.3291327 36.8329764 33.0528169 35.0685225 33.0528169"></polygon>
                <polygon id="Fill-130" stroke="#B327BF" fill="#B327BF" points="40.5824411 33.5509637 41.2441113 33.5509637 41.2441113 33.2746479 40.5824411 33.2746479"></polygon>
                <polygon id="Fill-131" stroke="#B327BF" fill="#B327BF" points="40.5824411 33.1073017 41.2441113 33.1073017 41.2441113 32.8309859 40.5824411 32.8309859"></polygon>
                <polygon id="Fill-132" stroke="#B327BF" fill="#B327BF" points="41.6852248 33.2746479 41.9606259 33.2746479 41.9606259 32.8309859 41.6852248 32.8309859"></polygon>
                <polygon id="Fill-133" stroke="#B327BF" fill="#B327BF" points="42.1263383 33.2746479 42.4017394 33.2746479 42.4017394 32.8309859 42.1263383 32.8309859"></polygon>
                <polygon id="Fill-134" stroke="#B327BF" fill="#B327BF" points="46.3169165 33.2746479 46.5923176 33.2746479 46.5923176 32.8309859 46.3169165 32.8309859"></polygon>
                <polygon id="Fill-135" stroke="#B327BF" fill="#B327BF" points="46.75803 33.2746479 47.033431 33.2746479 47.033431 32.8309859 46.75803 32.8309859"></polygon>
                <path d="M34.4281196,33.7183099 L34.0071239,33.2698722 C33.9519437,33.2110952 33.9519437,33.1161072 34.0071239,33.0575925 L34.4281196,32.6091549 L34.627409,32.8211722 L34.3059348,33.1636012 L34.627409,33.5060301 L34.4281196,33.7183099 Z" id="Fill-136" stroke="#B327BF" fill="#B327BF"></path>
                <path d="M47.8395463,33.7183099 L47.640257,33.5060301 L47.9617311,33.1636012 L47.640257,32.8211722 L47.8395463,32.6091549 L48.260542,33.0575925 C48.3157223,33.1161072 48.3157223,33.2110952 48.260542,33.2698722 L47.8395463,33.7183099 Z" id="Fill-137" stroke="#B327BF" fill="#B327BF"></path>
                <polygon id="Fill-138" stroke="#B327BF" fill="#B327BF" points="38.5974304 34.8819496 43.8907923 34.8819496 43.8907923 34.6056338 38.5974304 34.6056338"></polygon>
                <polygon id="Fill-139" stroke="#B327BF" fill="#B327BF" points="46.5374732 34.8819496 50.5074946 34.8819496 50.5074946 34.6056338 46.5374732 34.6056338"></polygon>
                <polygon id="Fill-140" stroke="#B327BF" fill="#B327BF" points="35.9507495 34.8819496 37.7152034 34.8819496 37.7152034 34.6056338 35.9507495 34.6056338"></polygon>
                <polygon id="Fill-141" stroke="#B327BF" fill="#B327BF" points="44.3319058 35.1037806 44.993576 35.1037806 44.993576 34.8274648 44.3319058 34.8274648"></polygon>
                <polygon id="Fill-142" stroke="#B327BF" fill="#B327BF" points="44.3319058 34.6601186 44.993576 34.6601186 44.993576 34.3838028 44.3319058 34.3838028"></polygon>
                <polygon id="Fill-143" stroke="#B327BF" fill="#B327BF" points="45.4346895 34.8274648 45.7100906 34.8274648 45.7100906 34.3838028 45.4346895 34.3838028"></polygon>
                <polygon id="Fill-144" stroke="#B327BF" fill="#B327BF" points="45.875803 34.8274648 46.1512041 34.8274648 46.1512041 34.3838028 45.875803 34.3838028"></polygon>
                <polygon id="Fill-145" stroke="#B327BF" fill="#B327BF" points="50.9486081 34.8274648 51.2240092 34.8274648 51.2240092 34.3838028 50.9486081 34.3838028"></polygon>
                <polygon id="Fill-146" stroke="#B327BF" fill="#B327BF" points="51.3897216 34.8274648 51.6651227 34.8274648 51.6651227 34.3838028 51.3897216 34.3838028"></polygon>
                <path d="M35.3103466,35.2711268 L34.8891046,34.8227952 C34.8627462,34.794463 34.8479657,34.7564243 34.8479657,34.7165493 C34.8479657,34.6766743 34.8627462,34.6386356 34.8891046,34.6105657 L35.3103466,34.1619718 L35.509636,34.3742013 L35.1881618,34.7165493 L35.509636,35.0588973 L35.3103466,35.2711268 Z" id="Fill-147" stroke="#B327BF" fill="#B327BF"></path>
                <path d="M52.471238,35.2711268 L52.2719486,35.0588973 L52.5934228,34.7165493 L52.2719486,34.3742013 L52.471238,34.1619718 L52.8922337,34.6105657 C52.9474139,34.6690666 52.9474139,34.764032 52.8922337,34.8227952 L52.471238,35.2711268 Z" id="Fill-148" stroke="#B327BF" fill="#B327BF"></path>
                <polygon id="Fill-149" stroke="#B327BF" fill="#B327BF" points="41.0235546 36.4347665 42.7880086 36.4347665 42.7880086 36.1584507 41.0235546 36.1584507"></polygon>
                <polygon id="Fill-150" stroke="#B327BF" fill="#B327BF" points="45.6552463 36.4347665 47.8608137 36.4347665 47.8608137 36.1584507 45.6552463 36.1584507"></polygon>
                <polygon id="Fill-151" stroke="#B327BF" fill="#B327BF" points="51.6102784 36.4347665 52.7130621 36.4347665 52.7130621 36.1584507 51.6102784 36.1584507"></polygon>
                <polygon id="Fill-152" stroke="#B327BF" fill="#B327BF" points="59.7708779 36.4347665 61.0942184 36.4347665 61.0942184 36.1584507 59.7708779 36.1584507"></polygon>
                <polygon id="Fill-153" stroke="#B327BF" fill="#B327BF" points="53.1541756 36.4347665 56.9036403 36.4347665 56.9036403 36.1584507 53.1541756 36.1584507"></polygon>
                <polygon id="Fill-154" stroke="#B327BF" fill="#B327BF" points="36.8329764 36.4347665 40.1413276 36.4347665 40.1413276 36.1584507 36.8329764 36.1584507"></polygon>
                <polygon id="Fill-155" stroke="#B327BF" fill="#B327BF" points="43.4496788 36.6565975 44.111349 36.6565975 44.111349 36.3802817 43.4496788 36.3802817"></polygon>
                <polygon id="Fill-156" stroke="#B327BF" fill="#B327BF" points="43.4496788 36.2129355 44.111349 36.2129355 44.111349 35.9366197 43.4496788 35.9366197"></polygon>
                <polygon id="Fill-157" stroke="#B327BF" fill="#B327BF" points="57.3447537 36.6565975 58.006424 36.6565975 58.006424 36.3802817 57.3447537 36.3802817"></polygon>
                <polygon id="Fill-158" stroke="#B327BF" fill="#B327BF" points="57.3447537 36.2129355 58.006424 36.2129355 58.006424 35.9366197 57.3447537 35.9366197"></polygon>
                <polygon id="Fill-159" stroke="#B327BF" fill="#B327BF" points="44.5524625 36.3802817 44.8278636 36.3802817 44.8278636 35.9366197 44.5524625 35.9366197"></polygon>
                <polygon id="Fill-160" stroke="#B327BF" fill="#B327BF" points="44.993576 36.3802817 45.2689771 36.3802817 45.2689771 35.9366197 44.993576 35.9366197"></polygon>
                <polygon id="Fill-161" stroke="#B327BF" fill="#B327BF" points="48.3019272 36.3802817 48.5773283 36.3802817 48.5773283 35.9366197 48.3019272 35.9366197"></polygon>
                <polygon id="Fill-162" stroke="#B327BF" fill="#B327BF" points="48.7430407 36.3802817 49.0184418 36.3802817 49.0184418 35.9366197 48.7430407 35.9366197"></polygon>
                <polygon id="Fill-163" stroke="#B327BF" fill="#B327BF" points="58.6680942 36.3802817 58.9434953 36.3802817 58.9434953 35.9366197 58.6680942 35.9366197"></polygon>
                <polygon id="Fill-164" stroke="#B327BF" fill="#B327BF" points="59.1092077 36.3802817 59.3846088 36.3802817 59.3846088 35.9366197 59.1092077 35.9366197"></polygon>
                <polygon id="Fill-165" stroke="#B327BF" fill="#B327BF" points="61.5353319 36.3802817 61.810733 36.3802817 61.810733 35.9366197 61.5353319 35.9366197"></polygon>
                <polygon id="Fill-166" stroke="#B327BF" fill="#B327BF" points="61.9764454 36.3802817 62.2518465 36.3802817 62.2518465 35.9366197 61.9764454 35.9366197"></polygon>
                <path d="M36.1925736,36.8239437 L35.7713316,36.3755061 C35.7449731,36.3471671 35.7301927,36.3091194 35.7301927,36.269235 C35.7301927,36.2293506 35.7449731,36.1913029 35.7713316,36.1632263 L36.1925736,35.7147887 L36.391863,35.926806 L36.0703888,36.269235 L36.391863,36.611664 L36.1925736,36.8239437 Z" id="Fill-167" stroke="#B327BF" fill="#B327BF"></path>
                <path d="M50.9698755,36.8239437 L50.5486335,36.3755061 C50.5222751,36.3471671 50.5074946,36.3091194 50.5074946,36.269235 C50.5074946,36.2293506 50.5222751,36.1913029 50.5486335,36.1632263 L50.9698755,35.7147887 L51.1691649,35.926806 L50.8476907,36.269235 L51.1691649,36.611664 L50.9698755,36.8239437 Z" id="Fill-168" stroke="#B327BF" fill="#B327BF"></path>
                <path d="M49.824557,36.8239437 L49.6252677,36.611664 L49.9467418,36.269235 L49.6252677,35.926806 L49.824557,35.7147887 L50.2457991,36.1632263 C50.2721575,36.1913029 50.2869379,36.2293506 50.2869379,36.269235 C50.2869379,36.3091194 50.2721575,36.3471671 50.2457991,36.3755061 L49.824557,36.8239437 Z" id="Fill-169" stroke="#B327BF" fill="#B327BF"></path>
                <polygon id="Fill-170" stroke="#B327BF" fill="#B327BF" points="40.3618844 37.9875834 41.4646681 37.9875834 41.4646681 37.7112676 40.3618844 37.7112676"></polygon>
                <polygon id="Fill-171" stroke="#B327BF" fill="#B327BF" points="44.111349 37.9875834 52.4925054 37.9875834 52.4925054 37.7112676 44.111349 37.7112676"></polygon>
                <polygon id="Fill-172" stroke="#B327BF" fill="#B327BF" points="36.8329764 37.9875834 39.4796574 37.9875834 39.4796574 37.7112676 36.8329764 37.7112676"></polygon>
                <polygon id="Fill-173" stroke="#B327BF" fill="#B327BF" points="41.9057816 38.2094144 42.5674518 38.2094144 42.5674518 37.9330986 41.9057816 37.9330986"></polygon>
                <polygon id="Fill-174" stroke="#B327BF" fill="#B327BF" points="41.9057816 37.7657524 42.5674518 37.7657524 42.5674518 37.4894366 41.9057816 37.4894366"></polygon>
                <polygon id="Fill-175" stroke="#B327BF" fill="#B327BF" points="43.0085653 37.9330986 43.2839664 37.9330986 43.2839664 37.4894366 43.0085653 37.4894366"></polygon>
                <polygon id="Fill-176" stroke="#B327BF" fill="#B327BF" points="43.4496788 37.9330986 43.7250799 37.9330986 43.7250799 37.4894366 43.4496788 37.4894366"></polygon>
                <polygon id="Fill-177" stroke="#B327BF" fill="#B327BF" points="52.7130621 37.9330986 52.9884632 37.9330986 52.9884632 37.4894366 52.7130621 37.4894366"></polygon>
                <polygon id="Fill-178" stroke="#B327BF" fill="#B327BF" points="53.1541756 37.9330986 53.4295767 37.9330986 53.4295767 37.4894366 53.1541756 37.4894366"></polygon>
                <path d="M36.1925736,38.3767606 L35.7713316,37.928323 C35.7449731,37.899984 35.7301927,37.8619363 35.7301927,37.8220519 C35.7301927,37.7821675 35.7449731,37.7441198 35.7713316,37.7160432 L36.1925736,37.2676056 L36.391863,37.4796229 L36.0703888,37.8220519 L36.391863,38.1644809 L36.1925736,38.3767606 Z" id="Fill-179" stroke="#B327BF" fill="#B327BF"></path>
                <path d="M54.2356919,38.3767606 L54.0364026,38.1644809 L54.3578768,37.8220519 L54.0364026,37.4796229 L54.2356919,37.2676056 L54.6566876,37.7160432 C54.7118679,37.7745579 54.7118679,37.8695459 54.6566876,37.928323 L54.2356919,38.3767606 Z" id="Fill-180" stroke="#B327BF" fill="#B327BF"></path>
                <path d="M63.0579617,36.8239437 L62.8586724,36.611664 L63.1801466,36.269235 L62.8586724,35.926806 L63.0579617,35.7147887 L63.4792038,36.1632263 C63.5055622,36.1913029 63.5203426,36.2293506 63.5203426,36.269235 C63.5203426,36.3091194 63.5055622,36.3471671 63.4792038,36.3755061 L63.0579617,36.8239437 Z" id="Fill-181" stroke="#B327BF" fill="#B327BF"></path>
                <path d="M36.8117091,10.4260563 L36.6124197,10.2137766 L36.9338939,9.87134767 L36.6124197,9.52891872 L36.8117091,9.31690141 L37.2329511,9.76533902 C37.2593095,9.79341557 37.2740899,9.83172563 37.2740899,9.87134767 C37.2740899,9.91123212 37.2593095,9.94954218 37.2329511,9.97761873 L36.8117091,10.4260563 Z" id="Fill-182" stroke="#B327BF" fill="#B327BF"></path>
                <polygon id="Fill-183" stroke="#B327BF" fill="#B327BF" points="34.1862955 31.5544848 37.9357602 31.5544848 37.9357602 31.278169 34.1862955 31.278169"></polygon>
                <path d="M33.5458927,31.943662 L33.124897,31.4953304 C33.0697167,31.4365673 33.0697167,31.3416018 33.124897,31.2831009 L33.5458927,30.834507 L33.745182,31.0467365 L33.4237078,31.3890845 L33.745182,31.7314325 L33.5458927,31.943662 Z" id="Fill-184" stroke="#B327BF" fill="#B327BF"></path>
                <path d="M38.576163,31.943662 L38.3768737,31.7314325 L38.6983478,31.3890845 L38.3768737,31.0467365 L38.576163,30.834507 L38.9971587,31.2831009 C39.052339,31.3416018 39.052339,31.4365673 38.9971587,31.4953304 L38.576163,31.943662 Z" id="Fill-185" stroke="#B327BF" fill="#B327BF"></path>
                <polygon id="Fill-186" stroke="#B327BF" fill="#B327BF" points="34.627409 40.2058933 38.3768737 40.2058933 38.3768737 39.9295775 34.627409 39.9295775"></polygon>
                <path d="M33.5458927,40.5950704 L33.124897,40.1467389 C33.0697167,40.0879757 33.0697167,39.9930102 33.124897,39.9345094 L33.5458927,39.4859155 L33.745182,39.698145 L33.4237078,40.040493 L33.745182,40.3828409 L33.5458927,40.5950704 Z" id="Fill-187" stroke="#B327BF" fill="#B327BF"></path>
                <path d="M39.0172765,40.5950704 L38.8179872,40.3828409 L39.1394613,40.040493 L38.8179872,39.698145 L39.0172765,39.4859155 L39.4382722,39.9345094 C39.4934524,39.9930102 39.4934524,40.0879757 39.4382722,40.1467389 L39.0172765,40.5950704 Z" id="Fill-188" stroke="#B327BF" fill="#B327BF"></path>
                <path d="M18.1623576,8.65140845 L17.1267217,8.65140845 C17.0472508,8.65140845 16.9828694,8.58935783 16.9828694,8.51276408 L16.9828694,8.01369284 L17.270574,8.01369284 L17.270574,8.37411972 L18.0185053,8.37411972 L18.0185053,7.98606092 L17.6445396,7.98606092 C17.6065646,7.98606092 17.5698471,7.97127542 17.5429376,7.9453402 L17.4124143,7.81954225 L17.270574,7.81954225 L17.270574,7.84741656 L16.9828694,7.84741656 L16.9828694,7.68089789 C16.9828694,7.60430415 17.0472508,7.54225352 17.1267217,7.54225352 L17.471766,7.54225352 C17.5099925,7.54225352 17.54671,7.55679664 17.5736194,7.58297424 L17.7041427,7.70877219 L18.1623576,7.70877219 C18.2418284,7.70877219 18.3062099,7.77082282 18.3062099,7.84741656 L18.3062099,8.51276408 C18.3062099,8.58935783 18.2418284,8.65140845 18.1623576,8.65140845" id="Fill-189" stroke="#B327BF" fill="#B327BF"></path>
                <polygon id="Fill-190" stroke="#B327BF" fill="#B327BF" points="18.9678801 8.26223128 26.2462527 8.26223128 26.2462527 7.98591549 18.9678801 7.98591549"></polygon>
                <path d="M18.1623576,13.0880282 L17.1267217,13.0880282 C17.0472508,13.0880282 16.9828694,13.0259775 16.9828694,12.9493838 L16.9828694,12.4503126 L17.270574,12.4503126 L17.270574,12.8107394 L18.0185053,12.8107394 L18.0185053,12.4226806 L17.6445396,12.4226806 C17.6065646,12.4226806 17.5698471,12.4078951 17.5429376,12.3819599 L17.4124143,12.256162 L17.270574,12.256162 L17.270574,12.2840363 L16.9828694,12.2840363 L16.9828694,12.1175176 C16.9828694,12.0409239 17.0472508,11.9788732 17.1267217,11.9788732 L17.471766,11.9788732 C17.5099925,11.9788732 17.54671,11.9934164 17.5736194,12.019594 L17.7041427,12.1453919 L18.1623576,12.1453919 C18.2418284,12.1453919 18.3062099,12.2074425 18.3062099,12.2840363 L18.3062099,12.9493838 C18.3062099,13.0259775 18.2418284,13.0880282 18.1623576,13.0880282" id="Fill-191" stroke="#B327BF" fill="#B327BF"></path>
                <polygon id="Fill-192" stroke="#B327BF" fill="#B327BF" points="18.9678801 12.698851 26.2462527 12.698851 26.2462527 12.4225352 18.9678801 12.4225352"></polygon>
                <path d="M18.1623576,25.0669014 L17.1267217,25.0669014 C17.0472508,25.0669014 16.9828694,25.0048508 16.9828694,24.928257 L16.9828694,24.4291858 L17.270574,24.4291858 L17.270574,24.7896127 L18.0185053,24.7896127 L18.0185053,24.4013115 L17.6445396,24.4013115 C17.6065646,24.4013115 17.5698471,24.3867684 17.5429376,24.3608332 L17.4124143,24.2350352 L17.270574,24.2350352 L17.270574,24.2626671 L16.9828694,24.2626671 L16.9828694,24.0963908 C16.9828694,24.0197971 17.0472508,23.9577465 17.1267217,23.9577465 L17.471766,23.9577465 C17.5099925,23.9577465 17.54671,23.9722896 17.5736194,23.9984672 L17.7041427,24.1240228 L18.1623576,24.1240228 C18.2418284,24.1240228 18.3062099,24.1860734 18.3062099,24.2626671 L18.3062099,24.928257 C18.3062099,25.0048508 18.2418284,25.0669014 18.1623576,25.0669014" id="Fill-193" stroke="#B327BF" fill="#B327BF"></path>
                <polygon id="Fill-194" stroke="#B327BF" fill="#B327BF" points="18.9678801 24.6777242 26.2462527 24.6777242 26.2462527 24.4014085 18.9678801 24.4014085"></polygon>
                <path d="M18.1623576,31.943662 L17.1267217,31.943662 C17.0472508,31.943662 16.9828694,31.8816113 16.9828694,31.8050176 L16.9828694,31.3059464 L17.270574,31.3059464 L17.270574,31.6663732 L18.0185053,31.6663732 L18.0185053,31.2783144 L17.6445396,31.2783144 C17.6065646,31.2783144 17.5698471,31.2635289 17.5429376,31.2375937 L17.4124143,31.1117958 L17.270574,31.1117958 L17.270574,31.1396701 L16.9828694,31.1396701 L16.9828694,30.9731514 C16.9828694,30.8965577 17.0472508,30.834507 17.1267217,30.834507 L17.471766,30.834507 C17.5099925,30.834507 17.54671,30.8490502 17.5736194,30.8752278 L17.7041427,31.0010257 L18.1623576,31.0010257 C18.2418284,31.0010257 18.3062099,31.0630763 18.3062099,31.1396701 L18.3062099,31.8050176 C18.3062099,31.8816113 18.2418284,31.943662 18.1623576,31.943662" id="Fill-195" stroke="#B327BF" fill="#B327BF"></path>
                <polygon id="Fill-196" stroke="#B327BF" fill="#B327BF" points="18.9678801 31.5544848 26.2462527 31.5544848 26.2462527 31.278169 18.9678801 31.278169"></polygon>
                <path d="M18.1623576,42.3697183 L17.1267217,42.3697183 C17.0472508,42.3697183 16.9828694,42.3076677 16.9828694,42.2310739 L16.9828694,41.7320027 L17.270574,41.7320027 L17.270574,42.0924296 L18.0185053,42.0924296 L18.0185053,41.7041284 L17.6445396,41.7041284 C17.6065646,41.7041284 17.5698471,41.6895853 17.5429376,41.6636501 L17.4124143,41.5378521 L17.270574,41.5378521 L17.270574,41.565484 L16.9828694,41.565484 L16.9828694,41.3992077 C16.9828694,41.322614 17.0472508,41.2605634 17.1267217,41.2605634 L17.471766,41.2605634 C17.5099925,41.2605634 17.54671,41.2751065 17.5736194,41.3012841 L17.7041427,41.4268397 L18.1623576,41.4268397 C18.2418284,41.4268397 18.3062099,41.4888903 18.3062099,41.565484 L18.3062099,42.2310739 C18.3062099,42.3076677 18.2418284,42.3697183 18.1623576,42.3697183" id="Fill-197" stroke="#B327BF" fill="#B327BF"></path>
                <polygon id="Fill-198" stroke="#B327BF" fill="#B327BF" points="18.9678801 41.7587102 26.2462527 41.7587102 26.2462527 41.4823944 18.9678801 41.4823944"></polygon>
                <polygon id="Fill-199" stroke="#B327BF" fill="#B327BF" points="19.6295503 9.37138621 26.0256959 9.37138621 26.0256959 9.09507042 19.6295503 9.09507042"></polygon>
                <polygon id="Fill-200" stroke="#B327BF" fill="#B327BF" points="19.6295503 14.4734989 26.9079229 14.4734989 26.9079229 14.1971831 19.6295503 14.1971831"></polygon>
                <polygon id="Fill-201" stroke="#B327BF" fill="#B327BF" points="19.6295503 16.2481468 25.3640257 16.2481468 25.3640257 15.971831 19.6295503 15.971831"></polygon>
                <polygon id="Fill-202" stroke="#B327BF" fill="#B327BF" points="19.6295503 17.8009637 26.0256959 17.8009637 26.0256959 17.5246479 19.6295503 17.5246479"></polygon>
                <polygon id="Fill-203" stroke="#B327BF" fill="#B327BF" points="19.6295503 21.3502595 25.3640257 21.3502595 25.3640257 21.0739437 19.6295503 21.0739437"></polygon>
                <polygon id="Fill-204" stroke="#B327BF" fill="#B327BF" points="19.6295503 22.9030764 26.0256959 22.9030764 26.0256959 22.6267606 19.6295503 22.6267606"></polygon>
                <polygon id="Fill-205" stroke="#B327BF" fill="#B327BF" points="19.6295503 26.4523721 25.3640257 26.4523721 25.3640257 26.1760563 19.6295503 26.1760563"></polygon>
                <polygon id="Fill-206" stroke="#B327BF" fill="#B327BF" points="19.6295503 28.22702 24.4817987 28.22702 24.4817987 27.9507042 19.6295503 27.9507042"></polygon>
                <polygon id="Fill-207" stroke="#B327BF" fill="#B327BF" points="19.6295503 29.7798369 25.3640257 29.7798369 25.3640257 29.5035211 19.6295503 29.5035211"></polygon>
                <polygon id="Fill-208" stroke="#B327BF" fill="#B327BF" points="19.6295503 33.3291327 26.9079229 33.3291327 26.9079229 33.0528169 19.6295503 33.0528169"></polygon>
                <polygon id="Fill-209" stroke="#B327BF" fill="#B327BF" points="19.6295503 35.1037806 26.0256959 35.1037806 26.0256959 34.8274648 19.6295503 34.8274648"></polygon>
                <polygon id="Fill-210" stroke="#B327BF" fill="#B327BF" points="19.6295503 36.6565975 27.7901499 36.6565975 27.7901499 36.3802817 19.6295503 36.3802817"></polygon>
                <polygon id="Fill-211" stroke="#B327BF" fill="#B327BF" points="19.6295503 38.4312454 26.9079229 38.4312454 26.9079229 38.1549296 19.6295503 38.1549296"></polygon>
                <polygon id="Fill-212" stroke="#B327BF" fill="#B327BF" points="19.6295503 40.2058933 26.0256959 40.2058933 26.0256959 39.9295775 19.6295503 39.9295775"></polygon>
                <polygon id="Fill-213" stroke="#B327BF" fill="#B327BF" points="19.6295503 43.533358 26.0256959 43.533358 26.0256959 43.2570423 19.6295503 43.2570423"></polygon>
                <polygon id="Fill-214" stroke="#B327BF" fill="#B327BF" points="19.6295503 45.3080059 26.9079229 45.3080059 26.9079229 45.0316901 19.6295503 45.0316901"></polygon>
                <polygon id="Fill-215" stroke="#B327BF" fill="#B327BF" points="19.6295503 19.5756116 26.9079229 19.5756116 26.9079229 19.2992958 19.6295503 19.2992958"></polygon>
                <polygon id="Fill-216" stroke="#B327BF" fill="#B327BF" points="19.6295503 10.9242031 25.3640257 10.9242031 25.3640257 10.6478873 19.6295503 10.6478873"></polygon>
                <polygon id="Fill-217" stroke="#B327BF" fill="#B327BF" points="66.680221 19.5211268 66.3875803 19.4244623 66.7566098 18.6338028 67.0492505 18.7304672"></polygon>
                <polygon id="Fill-218" stroke="#B327BF" fill="#B327BF" points="72.7837259 19.3537806 73.6659529 19.3537806 73.6659529 19.0774648 72.7837259 19.0774648"></polygon>
                <path d="M74.085799,19.7429577 L73.8865096,19.530678 L74.2079838,19.1882491 L73.8865096,18.8458201 L74.085799,18.6338028 L74.5067947,19.0822404 C74.5619749,19.1407551 74.5619749,19.2360055 74.5067947,19.2945201 L74.085799,19.7429577 Z" id="Fill-219" stroke="#B327BF" fill="#B327BF"></path>
                <path d="M71.2610961,19.7429577 L70.8401004,19.2945201 C70.7849201,19.2360055 70.7849201,19.1407551 70.8401004,19.0822404 L71.2610961,18.6338028 L71.4603854,18.8458201 L71.1389113,19.1882491 L71.4603854,19.530678 L71.2610961,19.7429577 Z" id="Fill-220" stroke="#B327BF" fill="#B327BF"></path>
                <polygon id="Fill-221" stroke="#B327BF" fill="#B327BF" points="72.1941396 19.5211268 71.9014989 19.4244623 72.2705285 18.6338028 72.5631692 18.7304672"></polygon>
                <polygon id="Fill-222" stroke="#B327BF" fill="#B327BF" points="76.7537473 19.3537806 77.6359743 19.3537806 77.6359743 19.0774648 76.7537473 19.0774648"></polygon>
                <path d="M78.0558204,19.7429577 L77.856531,19.530678 L78.1780052,19.1882491 L77.856531,18.8458201 L78.0558204,18.6338028 L78.4768161,19.0822404 C78.5319963,19.1407551 78.5319963,19.2360055 78.4768161,19.2945201 L78.0558204,19.7429577 Z" id="Fill-223" stroke="#B327BF" fill="#B327BF"></path>
                <path d="M75.4516742,19.7429577 L75.0306785,19.2945201 C74.9754983,19.2360055 74.9754983,19.1407551 75.0306785,19.0822404 L75.4516742,18.6338028 L75.6509636,18.8458201 L75.3294894,19.1882491 L75.6509636,19.530678 L75.4516742,19.7429577 Z" id="Fill-224" stroke="#B327BF" fill="#B327BF"></path>
                <polygon id="Fill-225" stroke="#B327BF" fill="#B327BF" points="76.164161 19.5211268 75.8715203 19.4244623 76.2405499 18.6338028 76.5331906 18.7304672"></polygon>
                <polygon id="Fill-226" stroke="#B327BF" fill="#B327BF" points="45.2141328 21.1284285 45.875803 21.1284285 45.875803 20.8521127 45.2141328 20.8521127"></polygon>
                <polygon id="Fill-227" stroke="#B327BF" fill="#B327BF" points="45.2141328 20.6847665 45.875803 20.6847665 45.875803 20.4084507 45.2141328 20.4084507"></polygon>
                <polygon id="Fill-228" stroke="#B327BF" fill="#B327BF" points="47.4197002 20.9065975 49.1841542 20.9065975 49.1841542 20.6302817 47.4197002 20.6302817"></polygon>
                <polygon id="Fill-229" stroke="#B327BF" fill="#B327BF" points="49.6252677 20.9065975 51.8308351 20.9065975 51.8308351 20.6302817 49.6252677 20.6302817"></polygon>
                <polygon id="Fill-230" stroke="#B327BF" fill="#B327BF" points="55.359743 20.9065975 57.5653105 20.9065975 57.5653105 20.6302817 55.359743 20.6302817"></polygon>
                <polygon id="Fill-231" stroke="#B327BF" fill="#B327BF" points="59.3297645 20.9065975 62.8586724 20.9065975 62.8586724 20.6302817 59.3297645 20.6302817"></polygon>
                <polygon id="Fill-232" stroke="#B327BF" fill="#B327BF" points="46.3169165 20.8521127 46.5923176 20.8521127 46.5923176 20.4084507 46.3169165 20.4084507"></polygon>
                <polygon id="Fill-233" stroke="#B327BF" fill="#B327BF" points="46.75803 20.8521127 47.033431 20.8521127 47.033431 20.4084507 46.75803 20.4084507"></polygon>
                <polygon id="Fill-234" stroke="#B327BF" fill="#B327BF" points="51.8308351 20.8521127 52.1062362 20.8521127 52.1062362 20.4084507 51.8308351 20.4084507"></polygon>
                <polygon id="Fill-235" stroke="#B327BF" fill="#B327BF" points="52.2719486 20.8521127 52.5473497 20.8521127 52.5473497 20.4084507 52.2719486 20.4084507"></polygon>
                <path d="M53.3534649,21.2957746 L53.1541756,21.0834949 L53.4756498,20.741066 L53.1541756,20.398637 L53.3534649,20.1866197 L53.7744606,20.6350573 C53.8296409,20.693572 53.8296409,20.7888224 53.7744606,20.847337 L53.3534649,21.2957746 Z" id="Fill-236" stroke="#B327BF" fill="#B327BF"></path>
                <path d="M58.2057133,21.2957746 L58.006424,21.0834949 L58.3278982,20.741066 L58.006424,20.398637 L58.2057133,20.1866197 L58.626709,20.6350573 C58.6818893,20.693572 58.6818893,20.7888224 58.626709,20.847337 L58.2057133,21.2957746 Z" id="Fill-237" stroke="#B327BF" fill="#B327BF"></path>
                <polygon id="Fill-238" stroke="#B327BF" fill="#B327BF" points="37.7152034 20.9065975 39.4796574 20.9065975 39.4796574 20.6302817 37.7152034 20.6302817"></polygon>
                <polygon id="Fill-239" stroke="#B327BF" fill="#B327BF" points="41.9057816 20.9065975 42.7880086 20.9065975 42.7880086 20.6302817 41.9057816 20.6302817"></polygon>
                <polygon id="Fill-240" stroke="#B327BF" fill="#B327BF" points="43.4496788 20.9065975 44.7730193 20.9065975 44.7730193 20.6302817 43.4496788 20.6302817"></polygon>
                <path d="M37.0748006,21.2957746 L36.6535585,20.847337 C36.6272001,20.8192605 36.6124197,20.7809504 36.6124197,20.741066 C36.6124197,20.7014439 36.6272001,20.6631339 36.6535585,20.6350573 L37.0748006,20.1866197 L37.2740899,20.398637 L36.9526158,20.741066 L37.2740899,21.0834949 L37.0748006,21.2957746 Z" id="Fill-241" stroke="#B327BF" fill="#B327BF"></path>
                <path d="M41.2653787,21.2957746 L40.8441367,20.847337 C40.8177783,20.8192605 40.8029979,20.7809504 40.8029979,20.741066 C40.8029979,20.7014439 40.8177783,20.6631339 40.8441367,20.6350573 L41.2653787,20.1866197 L41.4646681,20.398637 L41.1431939,20.741066 L41.4646681,21.0834949 L41.2653787,21.2957746 Z" id="Fill-242" stroke="#B327BF" fill="#B327BF"></path>
                <path d="M54.7193402,21.2957746 L54.2983445,20.847337 C54.2431643,20.7888224 54.2431643,20.693572 54.2983445,20.6350573 L54.7193402,20.1866197 L54.9186296,20.398637 L54.5971554,20.741066 L54.9186296,21.0834949 L54.7193402,21.2957746 Z" id="Fill-243" stroke="#B327BF" fill="#B327BF"></path>
                <polygon id="Fill-244" stroke="#B327BF" fill="#B327BF" points="65.0642398 20.9065975 67.2698073 20.9065975 67.2698073 20.6302817 65.0642398 20.6302817"></polygon>
                <path d="M67.6896534,21.2957746 L67.490364,21.0834949 L67.8118382,20.741066 L67.490364,20.398637 L67.6896534,20.1866197 L68.1106491,20.6350573 C68.1658293,20.693572 68.1658293,20.7888224 68.1106491,20.847337 L67.6896534,21.2957746 Z" id="Fill-245" stroke="#B327BF" fill="#B327BF"></path>
                <path d="M63.54161,21.2957746 L63.120368,20.847337 C63.0940095,20.8192605 63.0792291,20.7809504 63.0792291,20.741066 C63.0792291,20.7014439 63.0940095,20.6631339 63.120368,20.6350573 L63.54161,20.1866197 L63.7408994,20.398637 L63.4194252,20.741066 L63.7408994,21.0834949 L63.54161,21.2957746 Z" id="Fill-246" stroke="#B327BF" fill="#B327BF"></path>
                <path d="M39.8995035,21.2957746 L39.7002141,21.0834949 L40.0216883,20.741066 L39.7002141,20.398637 L39.8995035,20.1866197 L40.3207455,20.6350573 C40.3471039,20.6631339 40.3618844,20.7014439 40.3618844,20.741066 C40.3618844,20.7809504 40.3471039,20.8192605 40.3207455,20.847337 L39.8995035,21.2957746 Z" id="Fill-247" stroke="#B327BF" fill="#B327BF"></path>
                <polygon id="Fill-248" stroke="#B327BF" fill="#B327BF" points="64.2540968 21.0739437 63.9614561 20.9772792 64.3304856 20.1866197 64.6231263 20.2832841"></polygon>
                <polygon id="Fill-249" stroke="#B327BF" fill="#B327BF" points="70.3576017 20.9065975 71.2398287 20.9065975 71.2398287 20.6302817 70.3576017 20.6302817"></polygon>
                <path d="M71.6596748,21.2957746 L71.4603854,21.0834949 L71.7818596,20.741066 L71.4603854,20.398637 L71.6596748,20.1866197 L72.0806705,20.6350573 C72.1358507,20.693572 72.1358507,20.7888224 72.0806705,20.847337 L71.6596748,21.2957746 Z" id="Fill-250" stroke="#B327BF" fill="#B327BF"></path>
                <path d="M68.8349719,21.2957746 L68.4137298,20.847337 C68.3873714,20.8192605 68.372591,20.7809504 68.372591,20.741066 C68.372591,20.7014439 68.3873714,20.6631339 68.4137298,20.6350573 L68.8349719,20.1866197 L69.0342612,20.398637 L68.7127871,20.741066 L69.0342612,21.0834949 L68.8349719,21.2957746 Z" id="Fill-251" stroke="#B327BF" fill="#B327BF"></path>
                <polygon id="Fill-252" stroke="#B327BF" fill="#B327BF" points="69.7680154 21.0739437 69.4753747 20.9772792 69.8444043 20.1866197 70.137045 20.2832841"></polygon>
                <polygon id="Fill-253" stroke="#B327BF" fill="#B327BF" points="74.3276231 20.9065975 75.2098501 20.9065975 75.2098501 20.6302817 74.3276231 20.6302817"></polygon>
                <path d="M75.6296962,21.2957746 L75.4304069,21.0834949 L75.751881,20.741066 L75.4304069,20.398637 L75.6296962,20.1866197 L76.0506919,20.6350573 C76.1058721,20.693572 76.1058721,20.7888224 76.0506919,20.847337 L75.6296962,21.2957746 Z" id="Fill-254" stroke="#B327BF" fill="#B327BF"></path>
                <path d="M73.02555,21.2957746 L72.604308,20.847337 C72.5779496,20.8192605 72.5631692,20.7809504 72.5631692,20.741066 C72.5631692,20.7014439 72.5779496,20.6631339 72.604308,20.6350573 L73.02555,20.1866197 L73.2248394,20.398637 L72.9033652,20.741066 L73.2248394,21.0834949 L73.02555,21.2957746 Z" id="Fill-255" stroke="#B327BF" fill="#B327BF"></path>
                <polygon id="Fill-256" stroke="#B327BF" fill="#B327BF" points="73.7380368 21.0739437 73.4453961 20.9772792 73.8144257 20.1866197 74.1070664 20.2832841"></polygon>
                <polygon id="Fill-257" stroke="#B327BF" fill="#B327BF" points="45.2141328 22.6812454 45.875803 22.6812454 45.875803 22.4049296 45.2141328 22.4049296"></polygon>
                <polygon id="Fill-258" stroke="#B327BF" fill="#B327BF" points="45.2141328 22.2375834 45.875803 22.2375834 45.875803 21.9612676 45.2141328 21.9612676"></polygon>
                <polygon id="Fill-259" stroke="#B327BF" fill="#B327BF" points="47.4197002 22.4594144 50.0663812 22.4594144 50.0663812 22.1830986 47.4197002 22.1830986"></polygon>
                <polygon id="Fill-260" stroke="#B327BF" fill="#B327BF" points="50.5074946 22.4594144 52.7130621 22.4594144 52.7130621 22.1830986 50.5074946 22.1830986"></polygon>
                <polygon id="Fill-261" stroke="#B327BF" fill="#B327BF" points="56.24197 22.4594144 58.4475375 22.4594144 58.4475375 22.1830986 56.24197 22.1830986"></polygon>
                <polygon id="Fill-262" stroke="#B327BF" fill="#B327BF" points="60.2119914 22.4594144 64.1820128 22.4594144 64.1820128 22.1830986 60.2119914 22.1830986"></polygon>
                <polygon id="Fill-263" stroke="#B327BF" fill="#B327BF" points="46.3169165 22.4049296 46.5923176 22.4049296 46.5923176 21.9612676 46.3169165 21.9612676"></polygon>
                <polygon id="Fill-264" stroke="#B327BF" fill="#B327BF" points="46.75803 22.4049296 47.033431 22.4049296 47.033431 21.9612676 46.75803 21.9612676"></polygon>
                <polygon id="Fill-265" stroke="#B327BF" fill="#B327BF" points="52.9336188 22.4049296 53.2090199 22.4049296 53.2090199 21.9612676 52.9336188 21.9612676"></polygon>
                <polygon id="Fill-266" stroke="#B327BF" fill="#B327BF" points="53.1541756 22.4049296 53.4295767 22.4049296 53.4295767 21.9612676 53.1541756 21.9612676"></polygon>
                <path d="M54.2356919,22.8485915 L54.0364026,22.6363118 L54.3578768,22.2938829 L54.0364026,21.9514539 L54.2356919,21.7394366 L54.6566876,22.1878742 C54.7118679,22.2463889 54.7118679,22.3416393 54.6566876,22.4001539 L54.2356919,22.8485915 Z" id="Fill-267" stroke="#B327BF" fill="#B327BF"></path>
                <path d="M59.0879403,22.8485915 L58.888651,22.6363118 L59.2101251,22.2938829 L58.888651,21.9514539 L59.0879403,21.7394366 L59.508936,22.1878742 C59.5641163,22.2463889 59.5641163,22.3416393 59.508936,22.4001539 L59.0879403,22.8485915 Z" id="Fill-268" stroke="#B327BF" fill="#B327BF"></path>
                <polygon id="Fill-269" stroke="#B327BF" fill="#B327BF" points="37.7152034 22.4594144 39.4796574 22.4594144 39.4796574 22.1830986 37.7152034 22.1830986"></polygon>
                <polygon id="Fill-270" stroke="#B327BF" fill="#B327BF" points="41.9057816 22.4594144 42.7880086 22.4594144 42.7880086 22.1830986 41.9057816 22.1830986"></polygon>
                <polygon id="Fill-271" stroke="#B327BF" fill="#B327BF" points="43.4496788 22.4594144 44.7730193 22.4594144 44.7730193 22.1830986 43.4496788 22.1830986"></polygon>
                <path d="M37.0748006,22.8485915 L36.6535585,22.4001539 C36.6272001,22.3720774 36.6124197,22.3337673 36.6124197,22.2938829 C36.6124197,22.2542608 36.6272001,22.2159508 36.6535585,22.1878742 L37.0748006,21.7394366 L37.2740899,21.9514539 L36.9526158,22.2938829 L37.2740899,22.6363118 L37.0748006,22.8485915 Z" id="Fill-272" stroke="#B327BF" fill="#B327BF"></path>
                <path d="M41.2653787,22.8485915 L40.8441367,22.4001539 C40.8177783,22.3720774 40.8029979,22.3337673 40.8029979,22.2938829 C40.8029979,22.2542608 40.8177783,22.2159508 40.8441367,22.1878742 L41.2653787,21.7394366 L41.4646681,21.9514539 L41.1431939,22.2938829 L41.4646681,22.6363118 L41.2653787,22.8485915 Z" id="Fill-273" stroke="#B327BF" fill="#B327BF"></path>
                <path d="M55.6015672,22.8485915 L55.1803251,22.4001539 C55.1539667,22.3720774 55.1391863,22.3337673 55.1391863,22.2938829 C55.1391863,22.2542608 55.1539667,22.2159508 55.1803251,22.1878742 L55.6015672,21.7394366 L55.8008565,21.9514539 L55.4793823,22.2938829 L55.8008565,22.6363118 L55.6015672,22.8485915 Z" id="Fill-274" stroke="#B327BF" fill="#B327BF"></path>
                <polygon id="Fill-275" stroke="#B327BF" fill="#B327BF" points="66.3875803 22.4594144 68.5931478 22.4594144 68.5931478 22.1830986 66.3875803 22.1830986"></polygon>
                <path d="M69.0129939,22.8485915 L68.8137045,22.6363118 L69.1351787,22.2938829 L68.8137045,21.9514539 L69.0129939,21.7394366 L69.4339896,22.1878742 C69.4891698,22.2463889 69.4891698,22.3416393 69.4339896,22.4001539 L69.0129939,22.8485915 Z" id="Fill-276" stroke="#B327BF" fill="#B327BF"></path>
                <path d="M65.0855072,22.8485915 L64.6645115,22.4001539 C64.6093313,22.3416393 64.6093313,22.2463889 64.6645115,22.1878742 L65.0855072,21.7394366 L65.2847966,21.9514539 L64.9633224,22.2938829 L65.2847966,22.6363118 L65.0855072,22.8485915 Z" id="Fill-277" stroke="#B327BF" fill="#B327BF"></path>
                <path d="M39.8995035,22.8485915 L39.7002141,22.6363118 L40.0216883,22.2938829 L39.7002141,21.9514539 L39.8995035,21.7394366 L40.3207455,22.1878742 C40.3471039,22.2159508 40.3618844,22.2542608 40.3618844,22.2938829 C40.3618844,22.3337673 40.3471039,22.3720774 40.3207455,22.4001539 L39.8995035,22.8485915 Z" id="Fill-278" stroke="#B327BF" fill="#B327BF"></path>
                <polygon id="Fill-279" stroke="#B327BF" fill="#B327BF" points="65.797994 22.6267606 65.5053533 22.5300961 65.8743829 21.7394366 66.1670236 21.836101"></polygon>
                <polygon id="Fill-280" stroke="#B327BF" fill="#B327BF" points="71.6809422 22.4594144 72.5631692 22.4594144 72.5631692 22.1830986 71.6809422 22.1830986"></polygon>
                <path d="M72.9830153,22.8485915 L72.7837259,22.6363118 L73.1052001,22.2938829 L72.7837259,21.9514539 L72.9830153,21.7394366 L73.404011,22.1878742 C73.4591912,22.2463889 73.4591912,22.3416393 73.404011,22.4001539 L72.9830153,22.8485915 Z" id="Fill-281" stroke="#B327BF" fill="#B327BF"></path>
                <path d="M70.3788691,22.8485915 L69.9578734,22.4001539 C69.9026932,22.3416393 69.9026932,22.2463889 69.9578734,22.1878742 L70.3788691,21.7394366 L70.5781585,21.9514539 L70.2566843,22.2938829 L70.5781585,22.6363118 L70.3788691,22.8485915 Z" id="Fill-282" stroke="#B327BF" fill="#B327BF"></path>
                <polygon id="Fill-283" stroke="#B327BF" fill="#B327BF" points="71.0913559 22.6267606 70.7987152 22.5300961 71.1677447 21.7394366 71.4603854 21.836101"></polygon>
                <polygon id="Fill-284" stroke="#B327BF" fill="#B327BF" points="75.8715203 22.4594144 76.7537473 22.4594144 76.7537473 22.1830986 75.8715203 22.1830986"></polygon>
                <path d="M77.1735934,22.8485915 L76.9743041,22.6363118 L77.2957783,22.2938829 L76.9743041,21.9514539 L77.1735934,21.7394366 L77.5945891,22.1878742 C77.6497694,22.2463889 77.6497694,22.3416393 77.5945891,22.4001539 L77.1735934,22.8485915 Z" id="Fill-285" stroke="#B327BF" fill="#B327BF"></path>
                <path d="M74.3488905,22.8485915 L73.9278948,22.4001539 C73.8727146,22.3416393 73.8727146,22.2463889 73.9278948,22.1878742 L74.3488905,21.7394366 L74.5481799,21.9514539 L74.2267057,22.2938829 L74.5481799,22.6363118 L74.3488905,22.8485915 Z" id="Fill-286" stroke="#B327BF" fill="#B327BF"></path>
                <polygon id="Fill-287" stroke="#B327BF" fill="#B327BF" points="75.2819341 22.6267606 74.9892934 22.5300961 75.3583229 21.7394366 75.6509636 21.836101"></polygon>
                <polygon id="Fill-288" stroke="#B327BF" fill="#B327BF" points="45.2141328 24.2340623 45.875803 24.2340623 45.875803 23.9577465 45.2141328 23.9577465"></polygon>
                <polygon id="Fill-289" stroke="#B327BF" fill="#B327BF" points="45.2141328 23.7904003 45.875803 23.7904003 45.875803 23.5140845 45.2141328 23.5140845"></polygon>
                <polygon id="Fill-290" stroke="#B327BF" fill="#B327BF" points="47.4197002 24.0122313 51.8308351 24.0122313 51.8308351 23.7359155 47.4197002 23.7359155"></polygon>
                <polygon id="Fill-291" stroke="#B327BF" fill="#B327BF" points="52.2719486 24.0122313 54.4775161 24.0122313 54.4775161 23.7359155 52.2719486 23.7359155"></polygon>
                <polygon id="Fill-292" stroke="#B327BF" fill="#B327BF" points="58.006424 24.0122313 60.2119914 24.0122313 60.2119914 23.7359155 58.006424 23.7359155"></polygon>
                <polygon id="Fill-293" stroke="#B327BF" fill="#B327BF" points="61.9764454 24.0122313 67.7109208 24.0122313 67.7109208 23.7359155 61.9764454 23.7359155"></polygon>
                <polygon id="Fill-294" stroke="#B327BF" fill="#B327BF" points="46.3169165 23.9577465 46.5923176 23.9577465 46.5923176 23.5140845 46.3169165 23.5140845"></polygon>
                <polygon id="Fill-295" stroke="#B327BF" fill="#B327BF" points="46.75803 23.9577465 47.033431 23.9577465 47.033431 23.5140845 46.75803 23.5140845"></polygon>
                <polygon id="Fill-296" stroke="#B327BF" fill="#B327BF" points="54.6980728 23.9577465 54.9734739 23.9577465 54.9734739 23.5140845 54.6980728 23.5140845"></polygon>
                <polygon id="Fill-297" stroke="#B327BF" fill="#B327BF" points="55.1391863 23.9577465 55.4145874 23.9577465 55.4145874 23.5140845 55.1391863 23.5140845"></polygon>
                <path d="M56.2207026,24.4014085 L56.0214133,24.1891287 L56.3428875,23.8466998 L56.0214133,23.5042708 L56.2207026,23.2922535 L56.6419447,23.7406911 C56.6683031,23.7687677 56.6830835,23.8070777 56.6830835,23.8466998 C56.6830835,23.8865842 56.6683031,23.9248943 56.6419447,23.9529708 L56.2207026,24.4014085 Z" id="Fill-298" stroke="#B327BF" fill="#B327BF"></path>
                <path d="M60.8523943,24.4014085 L60.6531049,24.1891287 L60.9745791,23.8466998 L60.6531049,23.5042708 L60.8523943,23.2922535 L61.2736363,23.7406911 C61.2999947,23.7687677 61.3147752,23.8070777 61.3147752,23.8466998 C61.3147752,23.8865842 61.2999947,23.9248943 61.2736363,23.9529708 L60.8523943,24.4014085 Z" id="Fill-299" stroke="#B327BF" fill="#B327BF"></path>
                <polygon id="Fill-300" stroke="#B327BF" fill="#B327BF" points="37.7152034 24.0122313 39.4796574 24.0122313 39.4796574 23.7359155 37.7152034 23.7359155"></polygon>
                <polygon id="Fill-301" stroke="#B327BF" fill="#B327BF" points="41.9057816 24.0122313 42.7880086 24.0122313 42.7880086 23.7359155 41.9057816 23.7359155"></polygon>
                <polygon id="Fill-302" stroke="#B327BF" fill="#B327BF" points="43.4496788 24.0122313 44.7730193 24.0122313 44.7730193 23.7359155 43.4496788 23.7359155"></polygon>
                <path d="M37.0748006,24.4014085 L36.6535585,23.9529708 C36.6272001,23.9248943 36.6124197,23.8865842 36.6124197,23.8466998 C36.6124197,23.8070777 36.6272001,23.7687677 36.6535585,23.7406911 L37.0748006,23.2922535 L37.2740899,23.5042708 L36.9526158,23.8466998 L37.2740899,24.1891287 L37.0748006,24.4014085 Z" id="Fill-303" stroke="#B327BF" fill="#B327BF"></path>
                <path d="M41.2653787,24.4014085 L40.8441367,23.9529708 C40.8177783,23.9248943 40.8029979,23.8865842 40.8029979,23.8466998 C40.8029979,23.8070777 40.8177783,23.7687677 40.8441367,23.7406911 L41.2653787,23.2922535 L41.4646681,23.5042708 L41.1431939,23.8466998 L41.4646681,24.1891287 L41.2653787,24.4014085 Z" id="Fill-304" stroke="#B327BF" fill="#B327BF"></path>
                <path d="M57.5865779,24.4014085 L57.1655822,23.9529708 C57.1104019,23.8944562 57.1104019,23.7992058 57.1655822,23.7406911 L57.5865779,23.2922535 L57.7858672,23.5042708 L57.4643931,23.8466998 L57.7858672,24.1891287 L57.5865779,24.4014085 Z" id="Fill-305" stroke="#B327BF" fill="#B327BF"></path>
                <polygon id="Fill-306" stroke="#B327BF" fill="#B327BF" points="70.137045 24.0122313 72.3426124 24.0122313 72.3426124 23.7359155 70.137045 23.7359155"></polygon>
                <path d="M72.7624585,24.4014085 L72.5631692,24.1891287 L72.8846433,23.8466998 L72.5631692,23.5042708 L72.7624585,23.2922535 L73.1834542,23.7406911 C73.2386345,23.7992058 73.2386345,23.8944562 73.1834542,23.9529708 L72.7624585,24.4014085 Z" id="Fill-307" stroke="#B327BF" fill="#B327BF"></path>
                <path d="M68.6144151,24.4014085 L68.1931731,23.9529708 C68.1668147,23.9248943 68.1520343,23.8865842 68.1520343,23.8466998 C68.1520343,23.8070777 68.1668147,23.7687677 68.1931731,23.7406911 L68.6144151,23.2922535 L68.8137045,23.5042708 L68.4922303,23.8466998 L68.8137045,24.1891287 L68.6144151,24.4014085 Z" id="Fill-308" stroke="#B327BF" fill="#B327BF"></path>
                <path d="M39.8995035,24.4014085 L39.7002141,24.1891287 L40.0216883,23.8466998 L39.7002141,23.5042708 L39.8995035,23.2922535 L40.3207455,23.7406911 C40.3471039,23.7687677 40.3618844,23.8070777 40.3618844,23.8466998 C40.3618844,23.8865842 40.3471039,23.9248943 40.3207455,23.9529708 L39.8995035,24.4014085 Z" id="Fill-309" stroke="#B327BF" fill="#B327BF"></path>
                <polygon id="Fill-310" stroke="#B327BF" fill="#B327BF" points="69.3269019 24.1795775 69.0342612 24.082913 69.4032908 23.2922535 69.6959315 23.3889179"></polygon>
                <polygon id="Fill-311" stroke="#B327BF" fill="#B327BF" points="75.4304069 24.0122313 76.3126338 24.0122313 76.3126338 23.7359155 75.4304069 23.7359155"></polygon>
                <path d="M76.7324799,24.4014085 L76.5331906,24.1891287 L76.8546648,23.8466998 L76.5331906,23.5042708 L76.7324799,23.2922535 L77.153722,23.7406911 C77.1800804,23.7687677 77.1948608,23.8070777 77.1948608,23.8466998 C77.1948608,23.8865842 77.1800804,23.9248943 77.153722,23.9529708 L76.7324799,24.4014085 Z" id="Fill-312" stroke="#B327BF" fill="#B327BF"></path>
                <path d="M73.907777,24.4014085 L73.486535,23.9529708 C73.4601766,23.9248943 73.4453961,23.8865842 73.4453961,23.8466998 C73.4453961,23.8070777 73.4601766,23.7687677 73.486535,23.7406911 L73.907777,23.2922535 L74.1070664,23.5042708 L73.7855922,23.8466998 L74.1070664,24.1891287 L73.907777,24.4014085 Z" id="Fill-313" stroke="#B327BF" fill="#B327BF"></path>
                <polygon id="Fill-314" stroke="#B327BF" fill="#B327BF" points="74.6202638 24.1795775 74.3276231 24.082913 74.6966527 23.2922535 74.9892934 23.3889179"></polygon>
                <polygon id="Fill-315" stroke="#B327BF" fill="#B327BF" points="79.4004283 24.0122313 80.2826552 24.0122313 80.2826552 23.7359155 79.4004283 23.7359155"></polygon>
                <path d="M80.7025014,24.4014085 L80.503212,24.1891287 L80.8246862,23.8466998 L80.503212,23.5042708 L80.7025014,23.2922535 L81.1237434,23.7406911 C81.1501018,23.7687677 81.1648822,23.8070777 81.1648822,23.8466998 C81.1648822,23.8865842 81.1501018,23.9248943 81.1237434,23.9529708 L80.7025014,24.4014085 Z" id="Fill-316" stroke="#B327BF" fill="#B327BF"></path>
                <path d="M78.0983552,24.4014085 L77.6771131,23.9529708 C77.6507547,23.9248943 77.6359743,23.8865842 77.6359743,23.8466998 C77.6359743,23.8070777 77.6507547,23.7687677 77.6771131,23.7406911 L78.0983552,23.2922535 L78.2976445,23.5042708 L77.9761704,23.8466998 L78.2976445,24.1891287 L78.0983552,24.4014085 Z" id="Fill-317" stroke="#B327BF" fill="#B327BF"></path>
                <polygon id="Fill-318" stroke="#B327BF" fill="#B327BF" points="78.810842 24.1795775 78.5182013 24.082913 78.8872308 23.2922535 79.1798715 23.3889179"></polygon>
                <polygon id="Fill-319" stroke="#B327BF" fill="#B327BF" points="45.2141328 25.5650482 45.875803 25.5650482 45.875803 25.2887324 45.2141328 25.2887324"></polygon>
                <polygon id="Fill-320" stroke="#B327BF" fill="#B327BF" points="45.2141328 25.3432172 45.875803 25.3432172 45.875803 25.0669014 45.2141328 25.0669014"></polygon>
                <polygon id="Fill-321" stroke="#B327BF" fill="#B327BF" points="47.4197002 25.5650482 50.9486081 25.5650482 50.9486081 25.2887324 47.4197002 25.2887324"></polygon>
                <polygon id="Fill-322" stroke="#B327BF" fill="#B327BF" points="51.3897216 25.5650482 53.5952891 25.5650482 53.5952891 25.2887324 51.3897216 25.2887324"></polygon>
                <polygon id="Fill-323" stroke="#B327BF" fill="#B327BF" points="57.124197 25.5650482 59.3297645 25.5650482 59.3297645 25.2887324 57.124197 25.2887324"></polygon>
                <polygon id="Fill-324" stroke="#B327BF" fill="#B327BF" points="61.0942184 25.5650482 65.0642398 25.5650482 65.0642398 25.2887324 61.0942184 25.2887324"></polygon>
                <polygon id="Fill-325" stroke="#B327BF" fill="#B327BF" points="65.7259101 25.5650482 67.0492505 25.5650482 67.0492505 25.2887324 65.7259101 25.2887324"></polygon>
                <polygon id="Fill-326" stroke="#B327BF" fill="#B327BF" points="46.3169165 25.5105634 46.5923176 25.5105634 46.5923176 25.0669014 46.3169165 25.0669014"></polygon>
                <polygon id="Fill-327" stroke="#B327BF" fill="#B327BF" points="46.75803 25.5105634 47.033431 25.5105634 47.033431 25.0669014 46.75803 25.0669014"></polygon>
                <polygon id="Fill-328" stroke="#B327BF" fill="#B327BF" points="53.8158458 25.5105634 54.0912469 25.5105634 54.0912469 25.0669014 53.8158458 25.0669014"></polygon>
                <polygon id="Fill-329" stroke="#B327BF" fill="#B327BF" points="54.0364026 25.5105634 54.3118036 25.5105634 54.3118036 25.0669014 54.0364026 25.0669014"></polygon>
                <path d="M55.3384757,25.9542254 L55.1391863,25.7419456 L55.4606605,25.3995167 L55.1391863,25.0570877 L55.3384757,24.8450704 L55.7594713,25.293508 C55.8146516,25.3520227 55.8146516,25.4472731 55.7594713,25.5057877 L55.3384757,25.9542254 Z" id="Fill-330" stroke="#B327BF" fill="#B327BF"></path>
                <path d="M59.9701673,25.9542254 L59.7708779,25.7419456 L60.0923521,25.3995167 L59.7708779,25.0570877 L59.9701673,24.8450704 L60.391163,25.293508 C60.4463432,25.3520227 60.4463432,25.4472731 60.391163,25.5057877 L59.9701673,25.9542254 Z" id="Fill-331" stroke="#B327BF" fill="#B327BF"></path>
                <polygon id="Fill-332" stroke="#B327BF" fill="#B327BF" points="37.7152034 25.5650482 39.4796574 25.5650482 39.4796574 25.2887324 37.7152034 25.2887324"></polygon>
                <polygon id="Fill-333" stroke="#B327BF" fill="#B327BF" points="41.9057816 25.5650482 42.7880086 25.5650482 42.7880086 25.2887324 41.9057816 25.2887324"></polygon>
                <polygon id="Fill-334" stroke="#B327BF" fill="#B327BF" points="43.4496788 25.5650482 44.7730193 25.5650482 44.7730193 25.2887324 43.4496788 25.2887324"></polygon>
                <path d="M37.0748006,25.9542254 L36.6535585,25.5057877 C36.6272001,25.4777112 36.6124197,25.4394011 36.6124197,25.3995167 C36.6124197,25.3598946 36.6272001,25.3215846 36.6535585,25.293508 L37.0748006,24.8450704 L37.2740899,25.0570877 L36.9526158,25.3995167 L37.2740899,25.7419456 L37.0748006,25.9542254 Z" id="Fill-335" stroke="#B327BF" fill="#B327BF"></path>
                <path d="M41.2653787,25.9542254 L40.8441367,25.5057877 C40.8177783,25.4777112 40.8029979,25.4394011 40.8029979,25.3995167 C40.8029979,25.3598946 40.8177783,25.3215846 40.8441367,25.293508 L41.2653787,24.8450704 L41.4646681,25.0570877 L41.1431939,25.3995167 L41.4646681,25.7419456 L41.2653787,25.9542254 Z" id="Fill-336" stroke="#B327BF" fill="#B327BF"></path>
                <path d="M56.4837942,25.9542254 L56.0625521,25.5057877 C56.0361937,25.4777112 56.0214133,25.4394011 56.0214133,25.3995167 C56.0214133,25.3598946 56.0361937,25.3215846 56.0625521,25.293508 L56.4837942,24.8450704 L56.6830835,25.0570877 L56.3616093,25.3995167 L56.6830835,25.7419456 L56.4837942,25.9542254 Z" id="Fill-337" stroke="#B327BF" fill="#B327BF"></path>
                <polygon id="Fill-338" stroke="#B327BF" fill="#B327BF" points="69.254818 25.5650482 71.4603854 25.5650482 71.4603854 25.2887324 69.254818 25.2887324"></polygon>
                <path d="M71.8802315,25.9542254 L71.6809422,25.7419456 L72.0024164,25.3995167 L71.6809422,25.0570877 L71.8802315,24.8450704 L72.3012272,25.293508 C72.3564075,25.3520227 72.3564075,25.4472731 72.3012272,25.5057877 L71.8802315,25.9542254 Z" id="Fill-339" stroke="#B327BF" fill="#B327BF"></path>
                <path d="M67.9527449,25.9542254 L67.5317492,25.5057877 C67.476569,25.4472731 67.476569,25.3520227 67.5317492,25.293508 L67.9527449,24.8450704 L68.1520343,25.0570877 L67.8305601,25.3995167 L68.1520343,25.7419456 L67.9527449,25.9542254 Z" id="Fill-340" stroke="#B327BF" fill="#B327BF"></path>
                <path d="M39.8995035,25.9542254 L39.7002141,25.7419456 L40.0216883,25.3995167 L39.7002141,25.0570877 L39.8995035,24.8450704 L40.3207455,25.293508 C40.3471039,25.3215846 40.3618844,25.3598946 40.3618844,25.3995167 C40.3618844,25.4394011 40.3471039,25.4777112 40.3207455,25.5057877 L39.8995035,25.9542254 Z" id="Fill-341" stroke="#B327BF" fill="#B327BF"></path>
                <polygon id="Fill-342" stroke="#B327BF" fill="#B327BF" points="68.6652317 25.7323944 68.372591 25.6357299 68.7416205 24.8450704 69.0342612 24.9417349"></polygon>
                <polygon id="Fill-343" stroke="#B327BF" fill="#B327BF" points="74.5481799 25.5650482 75.4304069 25.5650482 75.4304069 25.2887324 74.5481799 25.2887324"></polygon>
                <path d="M75.850253,25.9542254 L75.6509636,25.7419456 L75.9724378,25.3995167 L75.6509636,25.0570877 L75.850253,24.8450704 L76.2712487,25.293508 C76.3264289,25.3520227 76.3264289,25.4472731 76.2712487,25.5057877 L75.850253,25.9542254 Z" id="Fill-344" stroke="#B327BF" fill="#B327BF"></path>
                <path d="M73.2461068,25.9542254 L72.8251111,25.5057877 C72.7699308,25.4472731 72.7699308,25.3520227 72.8251111,25.293508 L73.2461068,24.8450704 L73.4453961,25.0570877 L73.123922,25.3995167 L73.4453961,25.7419456 L73.2461068,25.9542254 Z" id="Fill-345" stroke="#B327BF" fill="#B327BF"></path>
                <polygon id="Fill-346" stroke="#B327BF" fill="#B327BF" points="73.9585936 25.7323944 73.6659529 25.6357299 74.0349824 24.8450704 74.3276231 24.9417349"></polygon>
                <polygon id="Fill-347" stroke="#B327BF" fill="#B327BF" points="78.738758 25.5650482 79.620985 25.5650482 79.620985 25.2887324 78.738758 25.2887324"></polygon>
                <path d="M80.0408311,25.9542254 L79.8415418,25.7419456 L80.1630159,25.3995167 L79.8415418,25.0570877 L80.0408311,24.8450704 L80.4618268,25.293508 C80.5170071,25.3520227 80.5170071,25.4472731 80.4618268,25.5057877 L80.0408311,25.9542254 Z" id="Fill-348" stroke="#B327BF" fill="#B327BF"></path>
                <path d="M77.2161282,25.9542254 L76.7951325,25.5057877 C76.7399523,25.4472731 76.7399523,25.3520227 76.7951325,25.293508 L77.2161282,24.8450704 L77.4154176,25.0570877 L77.0939434,25.3995167 L77.4154176,25.7419456 L77.2161282,25.9542254 Z" id="Fill-349" stroke="#B327BF" fill="#B327BF"></path>
                <polygon id="Fill-350" stroke="#B327BF" fill="#B327BF" points="78.1491717 25.7323944 77.856531 25.6357299 78.2255606 24.8450704 78.5182013 24.9417349"></polygon>
                <polygon id="Fill-351" stroke="#B327BF" fill="#B327BF" points="36.6845037 27.2852113 36.391863 27.1885468 36.7608925 26.3978873 37.0535332 26.4945518"></polygon>
                <polygon id="Fill-352" stroke="#B327BF" fill="#B327BF" points="36.391863 28.448851 37.9357602 28.448851 37.9357602 28.1725352 36.391863 28.1725352"></polygon>
                <path d="M35.3103466,29.0598592 L34.8891046,28.6114215 C34.8627462,28.583345 34.8479657,28.5450349 34.8479657,28.5051505 C34.8479657,28.4655284 34.8627462,28.4272184 34.8891046,28.3991418 L35.3103466,27.9507042 L35.509636,28.1627215 L35.1881618,28.5051505 L35.509636,28.8475794 L35.3103466,29.0598592 Z" id="Fill-353" stroke="#B327BF" fill="#B327BF"></path>
                <path d="M38.576163,29.0598592 L38.3768737,28.8475794 L38.6983478,28.5051505 L38.3768737,28.1627215 L38.576163,27.9507042 L38.9971587,28.3991418 C39.052339,28.4576565 39.052339,28.5529069 38.9971587,28.6114215 L38.576163,29.0598592 Z" id="Fill-354" stroke="#B327BF" fill="#B327BF"></path>
                <polygon id="Fill-355" stroke="#B327BF" fill="#B327BF" points="35.8022767 28.8380282 35.509636 28.7413637 35.8786655 27.9507042 36.1713062 28.0473687"></polygon>
                <polygon id="Fill-356" stroke="#B327BF" fill="#B327BF" points="35.509636 30.0016679 37.0535332 30.0016679 37.0535332 29.7253521 35.509636 29.7253521"></polygon>
                <path d="M34.4281196,30.6126761 L34.0071239,30.1643445 C33.9519437,30.1058437 33.9519437,30.0106158 34.0071239,29.952115 L34.4281196,29.5035211 L34.627409,29.7157506 L34.3059348,30.0580986 L34.627409,30.4004466 L34.4281196,30.6126761 Z" id="Fill-357" stroke="#B327BF" fill="#B327BF"></path>
                <path d="M37.4733793,30.6126761 L37.2740899,30.4004466 L37.5955641,30.0580986 L37.2740899,29.7157506 L37.4733793,29.5035211 L37.894375,29.952115 C37.9495552,30.0106158 37.9495552,30.1058437 37.894375,30.1643445 L37.4733793,30.6126761 Z" id="Fill-358" stroke="#B327BF" fill="#B327BF"></path>
                <polygon id="Fill-359" stroke="#B327BF" fill="#B327BF" points="34.9200497 30.3908451 34.627409 30.2941806 34.9964385 29.5035211 35.2890792 29.6001856"></polygon>
                <polygon id="Fill-360" stroke="#B327BF" fill="#B327BF" points="34.2583795 40.3732394 33.9657388 40.276575 34.3347683 39.4859155 34.627409 39.5825799"></polygon>
                <rect id="Rectangle-8" fill="#FFFFFF" x="16" y="6" width="70" height="40"></rect>
            </g>
        </g>
    </g>
</svg>